<?xml version="1.0" encoding="UTF-8" standalone="no"?>
<!-- Created with Inkscape (http://www.inkscape.org/) -->

<svg
   xmlns:dc="http://purl.org/dc/elements/1.1/"
   xmlns:cc="http://creativecommons.org/ns#"
   xmlns:rdf="http://www.w3.org/1999/02/22-rdf-syntax-ns#"
   xmlns:svg="http://www.w3.org/2000/svg"
   xmlns="http://www.w3.org/2000/svg"
   xmlns:sodipodi="http://sodipodi.sourceforge.net/DTD/sodipodi-0.dtd"
   xmlns:inkscape="http://www.inkscape.org/namespaces/inkscape"
   width="3543.3069"
   height="3543.3069"
   id="svg2"
   version="1.1"
   inkscape:version="0.48.2 r9819"
   sodipodi:docname="New document 1">
  <defs
     id="defs4" />
  <sodipodi:namedview
     id="base"
     pagecolor="#ffffff"
     bordercolor="#666666"
     borderopacity="1.0"
     inkscape:pageopacity="0.0"
     inkscape:pageshadow="2"
     inkscape:zoom="0.09955015"
     inkscape:cx="5699.9609"
     inkscape:cy="1810.8039"
     inkscape:document-units="px"
     inkscape:current-layer="layer1"
     showgrid="false"
     units="m"
     inkscape:window-width="1366"
     inkscape:window-height="744"
     inkscape:window-x="0"
     inkscape:window-y="24"
     inkscape:window-maximized="1" />
  <metadata
     id="metadata7">
    <rdf:RDF>
      <cc:Work
         rdf:about="">
        <dc:format>image/svg+xml</dc:format>
        <dc:type
           rdf:resource="http://purl.org/dc/dcmitype/StillImage" />
        <dc:title></dc:title>
      </cc:Work>
    </rdf:RDF>
  </metadata>
  <g
     inkscape:label="Layer 1"
     inkscape:groupmode="layer"
     id="layer1"
     transform="translate(0,2490.9483)">
    <path
       style="fill:#ff0000;fill-rule:evenodd;stroke:#000000;stroke-width:1.07883871px;stroke-linecap:butt;stroke-linejoin:miter;stroke-opacity:1"
       d="m 1792.8961,-2423.2224 c -944.3852,0 -1709.93747,765.5837 -1709.93747,1709.96884 0,944.385 765.55227,1709.9374 1709.93747,1709.9374 944.3852,0 1709.9688,-765.5522 1709.9688,-1709.9374 0,-944.38514 -765.5836,-1709.96884 -1709.9688,-1709.96884 z m -70.9688,80.8125 c 6.2236,0.026 12.2353,0.5178 18.0313,1.4375 9.2643,1.3569 17.7547,4.1079 25.5,8.25 7.5055,4.0457 13.6786,9.6292 18.5313,16.7813 4.8432,7.0374 7.7051,15.798 8.5312,26.2812 0.7441,9.4469 -0.067,17.9218 -2.375,25.4063 -2.3084,7.4849 -6.054,14.0998 -11.2812,19.8437 -4.7941,5.3624 -10.6891,10.1794 -17.6563,14.4375 -6.9766,4.1433 -14.7257,7.8072 -23.2813,11.0313 13.3578,15.0603 24.4386,27.7758 33.25,38.0937 8.9263,10.3091 19.8175,22.8117 32.6876,37.5625 5.6133,6.5129 10.5794,11.2894 14.875,14.3125 4.4012,2.899 8.6792,5.2441 12.875,7 3.113,1.2617 6.9433,2.1101 11.5,2.5625 4.5562,0.4525 8.3391,0.6209 11.3437,0.5 l 0.9687,12.25 -66,5.2188 c -16.4371,-21.7726 -31.2556,-40.5429 -44.4374,-56.3125 -13.067,-15.7785 -27.2156,-32.0041 -42.4376,-48.6563 l -25.0312,1.9688 6.125,77.7812 c 0.3176,4.0322 1.2064,7.5519 2.7188,10.5625 1.5031,2.8955 4.413,4.964 8.6874,6.25 2.1371,0.6431 5.8239,1.1235 11.0626,1.4063 5.2384,0.2828 9.6382,0.3224 13.2187,0.1562 l 0.9687,12.2813 -103.6874,8.1562 -0.9688,-12.25 c 2.7467,-0.4482 6.705,-1.1717 11.8438,-2.1562 5.2539,-0.9935 8.8739,-2.04 10.875,-3.125 3.338,-1.7699 5.6354,-4.1582 6.9062,-7.1563 1.3859,-3.0071 1.9164,-6.757 1.5625,-11.25 l -13.9687,-177.2812 c -0.3178,-4.0319 -1.1967,-7.5738 -2.5938,-10.5938 -1.3971,-3.0194 -4.2667,-5.1602 -8.6562,-6.4375 -2.9618,-0.8096 -6.7972,-1.4314 -11.4688,-1.875 -4.6807,-0.5583 -8.6312,-0.836 -11.875,-0.8125 l -0.9688,-12.25 113.1876,-8.9375 c 3.888,-0.3062 7.7033,-0.453 11.4374,-0.4375 z m -18.8124,15.3125 c -1.8451,0.01 -3.7435,0.097 -5.6876,0.25 l -29.375,2.3125 8.2813,105.25 22.625,-1.7812 c 15.8979,-1.2524 28.7624,-7.3707 38.5625,-18.3438 9.7907,-11.0879 14.0045,-25.3952 12.625,-42.9062 -1.171,-14.861 -6.3569,-26.2812 -15.5625,-34.25 -8.0631,-7.0731 -18.5537,-10.5851 -31.4687,-10.5313 z m -308.3126,17.9063 3.3126,1.6562 73.25,218.5938 c 1.2851,3.835 3.0948,6.8632 5.4374,9.125 2.4152,2.1156 5.3705,3.6234 8.8438,4.5312 2.5223,0.6172 5.7889,0.4309 9.8438,-0.5625 4.0545,-0.9932 7.7384,-1.9765 11.0624,-2.9687 l 3.5938,10.6875 -55.3125,22.5625 -3.25,-1.4688 -5.0625,-15.125 -1.4375,0.094 c -3.5679,8.2646 -8.8907,15.8684 -15.9687,22.75 -6.9688,6.845 -14.875,11.7443 -23.75,14.7187 -9.204,3.0847 -18.8291,4.0594 -28.8438,2.9063 -9.9419,-1.2993 -19.3354,-4.6166 -28.1875,-9.9375 -8.9985,-5.3937 -17.1968,-12.7819 -24.5937,-22.125 -7.2875,-9.3797 -13.0786,-20.4615 -17.375,-33.2813 -3.9293,-11.7239 -5.6226,-23.5287 -5.0938,-35.4062 0.5288,-11.8773 3.0219,-22.9426 7.5,-33.2188 4.2234,-9.581 10.4205,-18.198 18.5938,-25.8125 8.2828,-7.6508 17.482,-13.1526 27.5624,-16.5312 7.5603,-2.5336 15.2949,-4.0172 23.1876,-4.4688 7.9654,-0.5974 15.0615,-0.3205 21.3124,0.875 l -18.9062,-56.375 c -1.5424,-4.6016 -3.6863,-8.5072 -6.4688,-11.7187 -2.8192,-3.3206 -5.9435,-5.508 -9.3437,-6.5625 -3.7657,-1.0533 -8.4156,-1.1358 -13.9687,-0.25 -5.4804,0.7401 -11.3268,1.9188 -17.5,3.5 l -3.4063,-10.1875 64.9687,-26 z m 546.5313,38.0937 c 1.7897,0.015 3.5572,0.1248 5.3125,0.2813 9.6685,0.8626 17.9867,2.2949 25,4.3125 7.1384,1.9131 13.4573,5.3214 18.9375,10.2187 5.4902,4.7826 9.4143,10.9917 11.75,18.625 2.4608,7.5289 3.1828,17.0524 2.1563,28.5625 -1.4684,16.4598 -2.9527,31.0357 -4.4376,43.7813 -1.4748,12.6306 -2.9051,26.5153 -4.25,41.5937 -0.4005,4.4891 0.052,8.0942 1.3126,10.875 1.3751,2.7912 3.5974,5.2772 6.6562,7.4063 1.634,1.1899 4.2643,1.9938 7.9375,2.4375 3.788,0.4539 7.6488,0.8697 11.5625,1.2187 l -1,11.0313 c -5.5845,1.4742 -10.4725,2.5936 -14.7188,3.375 -4.1416,0.9068 -8.8205,1.1495 -14,0.6875 -8.9781,-0.8009 -15.9911,-3.53 -21.0312,-8.1563 -4.915,-4.7311 -7.7537,-11.1843 -8.5312,-19.375 l -1.0313,-0.094 c -8.221,7.62 -16.8522,13.2399 -25.875,16.8437 -8.9078,3.6142 -19.383,4.8906 -31.4687,3.8125 -12.7765,-1.1396 -22.9733,-5.9962 -30.5626,-14.5625 -7.4741,-8.5559 -10.6606,-19.1824 -9.5312,-31.8437 0.5852,-6.5608 2.0401,-12.3283 4.3438,-17.3438 2.3036,-5.0153 5.4783,-9.4347 9.5312,-13.25 3.1856,-3.1963 7.2633,-5.9297 12.2188,-8.1562 4.9655,-2.3414 9.5875,-4.1331 13.875,-5.375 5.3541,-1.4947 16.1647,-4.1743 32.4062,-8.0625 16.3564,-3.8778 27.4267,-7.0626 33.2188,-9.5625 l 1.5312,-17.0938 c 0.1333,-1.4962 0.029,-4.3982 -0.2812,-8.7187 -0.1958,-4.31 -1.1421,-8.4542 -2.875,-12.4375 -1.9223,-4.464 -4.8936,-8.4497 -8.875,-11.9375 -3.8564,-3.5923 -9.632,-5.7182 -17.3438,-6.4063 -5.2948,-0.4721 -10.3254,0.01 -15.0938,1.4375 -4.643,1.3263 -7.9838,2.864 -10,4.6563 -0.2054,2.3022 0.021,5.7625 0.6563,10.3437 0.7505,4.5919 0.9637,8.7643 0.625,12.5625 -0.3594,4.0288 -2.5503,7.5532 -6.5313,10.5625 -3.8659,3.0199 -9.023,4.2626 -15.4687,3.6875 -5.7552,-0.5132 -9.8157,-2.9123 -12.2187,-7.1875 -2.2778,-4.3797 -3.2018,-9.1228 -2.75,-14.1875 0.4722,-5.2945 2.7604,-10.1815 6.875,-14.6875 4.2295,-4.4953 9.5195,-8.3915 15.8437,-11.6562 5.467,-2.7607 11.9695,-4.8762 19.5313,-6.4063 5.6788,-1.2336 11.2245,-1.8563 16.5937,-1.8125 z m 143.8437,17.875 56,12.3125 1.625,3 -6.8124,23.4688 1.1562,0.3437 c 3.5804,-1.9676 7.9397,-4.2319 13.0312,-6.8437 5.0914,-2.6116 9.6951,-4.607 13.8126,-5.9375 4.6578,-1.5342 10.1197,-2.3391 16.4062,-2.4375 6.3972,-0.066 12.9808,0.8763 19.75,2.8437 10.6527,3.0966 18.9578,8.6606 24.9375,16.6563 6.0116,7.885 9.5254,16.3381 10.5,25.4062 5.1235,-2.7225 9.6025,-5.0793 13.4375,-7.0937 3.9777,-2.0929 8.9449,-4.0911 14.9062,-5.9688 5.0552,-1.6593 10.6682,-2.5256 16.8438,-2.6562 6.2861,-0.098 12.915,0.8431 19.9062,2.875 13.8707,4.0319 23.544,11.7962 29,23.25 5.4555,11.454 5.4205,26.6044 -0.062,45.4687 l -24.2188,83.375 c -1.1292,3.8838 -1.4025,7.3107 -0.8125,10.25 0.6217,2.8283 2.3562,5.3892 5.1875,7.6563 2.2617,1.7405 4.5322,3.2355 6.8125,4.5 2.4229,1.1856 5.1446,2.3436 8.1875,3.4687 l -3.1875,10.9688 -80.0625,-23.25 3.1875,-11 7.8437,1.5625 c 2.7275,0.5521 5.1839,0.7727 7.375,0.6875 3.3972,-0.096 6.1914,-1.1343 8.3438,-3.1563 2.2952,-2.1007 4.0261,-5.1614 5.1875,-9.1562 l 24.625,-84.7188 c 3.3542,-11.5405 3.2699,-21.2063 -0.25,-28.9687 -3.3772,-7.841 -9.0278,-12.8973 -16.9063,-15.1875 -5.4376,-1.5804 -10.776,-2.215 -16.0312,-1.9375 -5.2556,0.2776 -10.322,1.3214 -15.1875,3.1562 -3.9279,1.506 -7.411,3.3851 -10.4687,5.625 -2.915,2.1615 -5.186,4.03 -6.8438,5.5938 l -27.5312,94.6875 c -1.1291,3.8838 -1.4025,7.3107 -0.8126,10.25 0.6219,2.8283 2.3564,5.358 5.1876,7.625 2.2617,1.7405 4.2886,3.177 6.125,4.3125 1.9791,1.0567 4.6103,2.1854 7.875,3.375 l -3.1876,11 -78.4062,-22.7813 3.1875,-11 c 2.6166,0.5199 5.1363,1.0134 7.5313,1.4688 2.5056,0.4876 4.8401,0.6789 7.0312,0.5937 3.3972,-0.096 6.1914,-1.1343 8.3438,-3.1562 2.2952,-2.1007 3.9949,-5.1614 5.1562,-9.1563 l 24.6562,-84.7187 c 3.3544,-11.5405 3.27,-21.2063 -0.25,-28.9688 -3.3771,-7.8409 -9.0277,-12.8973 -16.9062,-15.1875 -5.4375,-1.5803 -10.775,-2.1696 -16.0625,-1.7812 -5.2555,0.2777 -10.3219,1.3214 -15.1875,3.1562 -3.9278,1.5061 -7.4714,3.5069 -10.5938,5.9688 -3.0903,2.3511 -5.4076,4.1441 -6.9687,5.375 l -27.3437,94.0312 c -1.0968,3.7729 -1.2181,7.1525 -0.4063,10.1563 0.8116,3.0038 2.5611,5.6403 5.2813,7.875 2.0076,1.787 4.1574,3.298 6.4374,4.5625 2.28,1.2644 4.8809,2.4384 7.8126,3.5312 l -3.1876,11 -79.7187,-23.1875 3.1875,-10.9687 c 2.6167,0.5199 5.2723,1.0416 8,1.5937 2.8387,0.5845 5.3715,0.8353 7.5625,0.75 3.3973,-0.095 6.1603,-1.1342 8.3125,-3.1562 2.2954,-2.1007 4.0263,-5.1614 5.1875,-9.1563 l 29.6563,-102.0312 c 1.032,-3.5508 1.108,-6.9606 0.25,-10.2188 -0.715,-3.3365 -2.2268,-6.4138 -4.5313,-9.25 -1.7214,-1.9443 -3.9938,-3.7574 -6.875,-5.4375 -2.8491,-1.7907 -5.923,-3.279 -9.1875,-4.4687 l 3.1562,-10.8438 z m -921.375,31.375 3.5,1.0625 107.3438,204.0625 c 1.8827,3.5797 4.1379,6.2989 6.8125,8.1563 2.7228,1.7015 5.8949,2.7226 9.4687,3.0625 2.5887,0.2052 5.7816,-0.5263 9.625,-2.1563 3.8431,-1.6297 7.3466,-3.207 10.4688,-4.7187 l 5.2188,9.9687 -50.9688,31.1563 -3.4375,-0.9375 -7.4375,-14.125 -1.375,0.3437 c -2.1982,8.7294 -6.2405,17.0424 -12.125,24.9688 -5.7825,7.8727 -12.8096,14.0175 -21.0938,18.375 -8.591,4.519 -17.9299,7.003 -28,7.4687 -10.0217,0.3098 -19.8474,-1.4467 -29.4374,-5.2812 -9.7462,-3.8829 -19.0147,-9.8685 -27.8126,-17.9063 -8.6955,-8.0914 -16.1745,-18.0963 -22.4687,-30.0625 -5.7562,-10.9432 -9.3384,-22.3161 -10.7187,-34.125 -1.3804,-11.8086 -0.6807,-23.1705 2.0937,-34.0312 2.6344,-10.1338 7.3705,-19.6123 14.2187,-28.4375 6.9506,-8.8787 15.1533,-15.7693 24.5626,-20.7188 7.0569,-3.7117 14.4377,-6.4464 22.1562,-8.1562 7.7669,-1.8655 14.8258,-2.7102 21.1875,-2.5313 l -27.6875,-52.5937 c -2.2595,-4.2953 -5.0203,-7.8068 -8.2812,-10.5313 -3.3148,-2.8261 -6.7249,-4.5037 -10.25,-5 -3.8859,-0.4366 -8.5043,0.2363 -13.8438,2 -5.291,1.6083 -10.8472,3.6693 -16.6875,6.2188 l -5,-9.5 59.9687,-36.0313 z m 1312.8438,7.2813 c 3.2089,-0.1211 6.3244,0.5642 9.3125,2 5.9368,2.8533 9.796,7.1986 11.5937,13.0625 1.9516,5.8102 1.6464,11.3757 -0.9062,16.6875 -2.8532,5.9371 -7.3274,10.2047 -13.4375,12.7812 -5.9562,2.5228 -11.8028,2.3782 -17.5313,-0.375 -5.3121,-2.5525 -8.9505,-6.8377 -10.9062,-12.9062 -1.8017,-6.1223 -1.4154,-11.8961 1.1875,-17.3125 2.7528,-5.7284 7.0938,-9.8001 13,-12.2188 2.6294,-1.036 5.1917,-1.6245 7.6875,-1.7187 z m -1102.0938,25.625 c -3.8231,0.1159 -7.883,0.8805 -12.1562,2.3125 -6.5742,2.2035 -12.0816,5.9494 -16.5312,11.2187 -4.3402,5.233 -7.5755,11.7442 -9.7188,19.5313 -1.9977,7.4948 -2.628,16.4097 -1.8438,26.75 0.8572,10.1943 3.238,21.0577 7.0938,32.5625 3.0846,9.204 6.7443,17.2773 11.0312,24.25 4.2502,6.8633 9.5448,12.8371 15.875,17.9062 5.8914,4.8507 12.4284,8.1327 19.5938,9.875 7.2748,1.7058 15.0322,1.1917 23.25,-1.5625 8.7655,-2.9377 15.3375,-7.2867 19.75,-13.0312 4.5218,-5.7812 8.0039,-11.6385 10.4062,-17.5625 l -31.8124,-94.8125 c -1.8315,-2.5549 -4.27,-5.155 -7.3438,-7.7813 -3.074,-2.6259 -6.5611,-4.8145 -10.4375,-6.5625 -4.0956,-1.6741 -8.5768,-2.6788 -13.4375,-3 -1.2244,-0.1075 -2.4444,-0.1323 -3.7188,-0.094 z m 595.5938,1.6562 c -10.0405,2.005 -18.8559,4.051 -26.4688,6.1563 -7.613,2.1054 -14.7685,4.9523 -21.4687,8.5312 -6.1043,3.4003 -11.0545,7.6693 -14.875,12.7813 -3.8103,4.997 -6.0617,11.1647 -6.7187,18.5312 -0.8523,9.5536 1.0134,16.7883 5.5624,21.7188 4.6641,4.9408 10.8506,7.7809 18.5626,8.4687 8.1722,0.729 15.529,-0.6096 22.0937,-3.9687 6.5748,-3.4742 12.2273,-7.72 16.9687,-12.75 l 6.3438,-59.4688 z m 435.9688,40 56,22.6875 1.1562,3.25 -60.375,125.5938 c -1.752,3.6455 -2.5154,6.9849 -2.3125,10.0312 0.3069,3.0964 1.6862,5.9652 4.1563,8.5625 1.8408,2.0386 3.7066,3.8864 5.5937,5.5625 1.9369,1.5719 4.2044,3.1153 6.8125,4.625 l -4.9375,10.3125 -74.5313,-35.8125 4.9376,-10.3125 c 2.4957,0.943 5.0563,1.9133 7.6562,2.9063 2.704,1.043 5.1373,1.6927 7.3125,1.9687 3.3668,0.4641 6.2947,-0.1092 8.75,-1.75 2.6094,-1.6948 4.7918,-4.4378 6.5937,-8.1875 l 45.7188,-95.125 c 1.6016,-3.3329 2.2921,-6.7285 2.0312,-10.1875 -0.1068,-3.5128 -1.0679,-6.8549 -2.875,-10.0312 -1.3784,-2.2008 -3.7446,-4.6459 -7.0937,-7.2813 -3.2992,-2.7392 -6.4442,-4.9461 -9.4687,-6.6562 l 4.875,-10.1563 z m -1235.7813,46.6563 c -1.1787,0.024 -2.3501,0.1034 -3.5625,0.2187 -4.9033,0.3596 -10.0255,1.9216 -15.3438,4.7188 -6.1364,3.228 -10.9829,7.8048 -14.5312,13.7187 -3.446,5.8605 -5.6003,12.814 -6.4688,20.8438 -0.7715,7.718 0.07,16.6063 2.5,26.6875 2.4788,9.9254 6.5389,20.2613 12.1876,31 4.5189,8.5911 9.4328,15.9914 14.7812,22.1875 5.2945,6.094 11.4708,11.1352 18.5312,15.125 6.5922,3.8445 13.5856,6.0528 20.9376,6.625 7.4541,0.5185 15.0168,-1.2464 22.6874,-5.2813 8.1819,-4.3036 13.9708,-9.6541 17.4063,-16.0312 3.5375,-6.4307 6.0462,-12.7677 7.4687,-19 l -46.5624,-88.5 c -2.217,-2.2286 -5.0765,-4.3999 -8.5313,-6.5 -3.4549,-2.0997 -7.2375,-3.708 -11.3437,-4.8125 -3.2332,-0.7474 -6.6202,-1.0727 -10.1563,-1 z m 1347.0625,7.75 50.5312,26.3125 0.8126,3.3437 -12.5,20.5625 0.7187,0.4688 c 10.9858,-4.2728 21.5054,-6.1994 31.5313,-5.7813 10.0255,0.4184 18.1551,2.4975 24.375,6.2813 6.2194,3.784 10.0183,8.8912 11.4062,15.2812 1.4863,6.4503 0.1441,13.0631 -4,19.875 -3.0634,5.0351 -7.0358,8.7714 -11.9062,11.2188 -4.8108,2.3488 -9.7728,1.967 -14.9063,-1.1563 -5.5288,-3.3634 -8.9052,-7.3663 -10.125,-12.0312 -1.1214,-4.6048 -0.6336,-8.6383 1.4687,-12.0938 1.3212,-2.1718 2.6851,-4.0593 4.0626,-5.6562 1.4758,-1.5367 2.9037,-3.0906 4.2812,-4.6875 -4.6402,-2.8228 -11.2169,-4.2488 -19.7188,-4.2813 -8.5021,-0.032 -17.0143,2.0758 -25.5624,6.3438 l -51.7188,85 c -2.1022,3.4554 -3.1809,6.6722 -3.2188,9.625 0.061,3.0128 1.2039,5.9222 3.4063,8.75 1.8674,2.4888 4.5749,5.1639 8.125,8 3.6486,2.8961 6.8195,5.3107 9.5625,7.25 l -5.9375,9.75 -77,-46.8438 5.9375,-9.75 c 2.3908,1.184 4.8542,2.381 7.3438,3.625 2.5882,1.3041 4.925,2.1988 7.0624,2.6875 3.3049,0.7933 6.2702,0.4849 8.875,-0.9062 2.7636,-1.4298 5.2128,-3.9146 7.375,-7.4688 l 54.875,-90.1875 c 1.8619,-3.0603 2.9602,-6.5122 3.2813,-10.375 0.4196,-3.8025 -0.1081,-7.3799 -1.5937,-10.7187 -1.1552,-2.3258 -2.8586,-4.5071 -5.125,-6.5625 -2.2066,-2.1538 -4.7523,-4.2193 -7.5938,-6.2188 l 5.875,-9.6562 z m -1510,85.5937 c 4.6919,-0.05 9.4814,0.3447 14.3125,1.1563 22.1088,3.5489 41.1585,16.0721 57.1875,37.5625 7.1853,9.6339 12.7349,20.2394 16.6562,31.875 3.8521,11.5433 5.3767,22.6764 4.5626,33.375 -0.8646,12.1779 -4.1714,23.2252 -9.9063,33.125 -5.7351,9.8999 -13.8139,18.7554 -24.2813,26.5625 -8.7074,6.4945 -18.2081,11.057 -28.4999,13.6875 -10.361,2.5379 -20.9695,2.9266 -31.7813,1.1875 -10.65008,-1.7154 -21.09843,-5.6768 -31.34372,-11.875 -10.22172,-6.3598 -19.45917,-15.1029 -27.75,-26.2188 -15.95974,-21.3978 -22.81887,-43.5311 -20.5625,-66.4062 2.34913,-22.9439 13.6188,-41.9382 33.8125,-57 14.98031,-11.173 30.83703,-16.8517 47.59372,-17.0313 z m -18.40622,19.9063 c -7.44227,0.073 -14.64635,2.7247 -21.59375,7.9062 -7.13263,5.3202 -11.93689,11.6178 -14.40625,18.9375 -2.37666,7.2511 -2.84792,15.1312 -1.4375,23.5938 1.25031,7.8616 3.97147,15.8454 8.15625,23.9687 4.18483,8.1236 8.8002,15.5505 13.84375,22.3125 6.63265,8.8928 13.47639,16.6282 20.53125,23.1875 7.07837,6.3979 14.39747,11.3895 21.96877,14.9688 7.5712,3.5794 15.0006,5.315 22.2812,5.2187 7.3041,-0.2578 14.4599,-2.9991 21.5,-8.25 11.5789,-8.6361 16.5664,-21.0916 14.9687,-37.3437 -1.5978,-16.2519 -9.7526,-34.238 -24.4687,-53.9688 -5.1818,-6.9472 -11.3136,-13.7539 -18.4375,-20.4062 -7.1931,-6.7445 -14.1826,-11.7624 -20.9687,-15.0625 -7.2478,-3.5321 -14.56434,-5.2276 -21.93752,-5.0625 z m 1690.25002,11.3125 c 5.2381,-0.049 10.5282,0.4622 15.875,1.5312 10.8554,2.1196 21.0551,6.9294 30.5624,14.4688 9.7786,7.7549 16.938,15.9551 21.4688,24.5625 4.5303,8.6075 6.8276,17.3051 6.9375,26.0937 0.1438,8.3735 -1.5038,16.789 -4.9687,25.25 -3.3749,8.5329 -8.2659,16.8166 -14.6563,24.875 l -7.0937,8.9688 -88.6876,-70.3438 c -6.965,8.7829 -12.4885,17.3984 -16.5312,25.8438 -3.9523,8.5173 -6.2511,16.9452 -6.9375,25.25 -0.6335,8.0519 0.6745,15.8666 3.9375,23.4687 3.3347,7.5116 8.9351,14.4093 16.8125,20.6563 8.0583,6.3905 16.4486,10.023 25.1875,10.9062 8.901,0.8644 19.9686,-1.4358 33.1562,-6.9062 l 4.875,13.375 c -14.0867,6.2323 -28.3697,8.7857 -42.8124,7.6562 -14.443,-1.1296 -27.7767,-6.5565 -40,-16.25 -10.7749,-8.5447 -18.7107,-17.9535 -23.8438,-28.2187 -5.0427,-10.1935 -7.6059,-20.6287 -7.6875,-31.3125 -0.082,-10.6838 2.0138,-21.4129 6.2813,-32.1875 4.3579,-10.7027 10.3793,-20.8742 18.0624,-30.5625 6.8932,-8.6922 14.9902,-16.1365 24.3126,-22.3125 9.4845,-6.1946 19.563,-10.5361 30.2187,-13 5.1295,-1.1679 10.2931,-1.7631 15.5313,-1.8125 z m -1871.78127,15.1562 48,46.375 -8.3125,8.5938 c -3.71503,-2.1415 -8.56271,-4.1863 -14.5625,-6.125 -6.00264,-2.1016 -12.01445,-3.722 -18,-4.8438 -6.23204,-1.1985 -12.19002,-1.6691 -17.90625,-1.4062 -5.71901,0.1001 -10.12274,1.346 -13.1875,3.6875 -2.82099,2.2561 -6.18575,5.2539 -10.125,9 -3.93913,3.7466 -7.50767,7.269 -10.71875,10.5937 l -7,7.25 141.53125,136.6563 c 2.7431,2.6492 5.82979,4.5099 9.28125,5.5937 3.36819,1.0038 7.09964,0.6742 11.15625,-1.0312 2.02675,-0.9342 5.80171,-3.3187 11.375,-7.0938 5.65338,-3.8578 9.81671,-7.0763 12.46875,-9.6562 l 8.84375,8.5625 -80.65625,83.5312 -8.875,-8.5312 c 2.08143,-2.488 5.17303,-6.3426 9.25,-11.5625 4.15717,-5.3029 6.73204,-9.2299 7.75,-11.7813 1.5684,-3.7866 1.97835,-7.2639 1.1875,-10.4375 -0.7938,-3.3368 -2.90437,-6.6461 -6.3125,-9.9375 l -142.65625,-137.7812 -6.96875,7.25 c -2.48842,2.5771 -5.50472,5.8596 -9.03125,9.8437 -3.60941,3.9043 -6.88769,7.7951 -9.84375,11.6875 -2.31645,3.0645 -3.415,7.5553 -3.3125,13.4375 0.0999,5.7193 0.82396,11.6128 2.15625,17.7188 1.33255,6.1063 3.16952,12.1817 5.5625,18.1875 2.3101,5.9258 4.47943,10.5717 6.5,13.9687 l -8.4375,8.7188 -48,-46.3438 148.84375,-154.125 z m 1885.81247,2.7188 c -2.9673,0.08 -6.0233,0.4834 -9.1875,1.2187 -12.4946,2.923 -24.6304,11.2123 -36.375,24.9063 l 61.9375,49.125 c 4.0209,-5.0705 7.8723,-10.8621 11.5625,-17.375 3.7804,-6.441 6.2824,-12.3487 7.4687,-17.75 1.2203,-5.8165 1.0393,-11.502 -0.5,-17 -1.5396,-5.4979 -5.1396,-10.5075 -10.8437,-15.0313 -7.1305,-5.6545 -15.1605,-8.3347 -24.0625,-8.0937 z m 120.4688,79.1562 91.1874,93.625 -5.0937,4.9688 -175.875,34.0625 c 2.8194,3.0612 5.9287,6.4217 9.3125,10.0625 3.4665,3.5601 7.219,7.3915 11.25,11.5312 3.2246,3.3118 6.6068,6.708 10.1562,10.1875 3.63,3.5623 8.343,8.005 14.1563,13.3125 3.3902,3.1505 6.9114,4.547 10.5937,4.1875 3.7628,-0.2768 7.4325,-1.2372 10.9688,-2.9062 3.2877,-1.4273 7.6306,-3.568 13.0625,-6.4375 5.5122,-2.7869 10.7458,-5.6239 15.6875,-8.5 l 7.25,7.4375 -43.2188,42.0937 -96.5,-99.125 6.5938,-6.4062 173.2812,-33.7188 -16.6874,-17.125 c -7.014,-7.203 -12.614,-12.7161 -16.8126,-16.5312 -4.1988,-3.815 -8.6623,-6.7571 -13.375,-8.7813 -3.1681,-1.4313 -7.8981,-1.0597 -14.2187,1.0625 -6.2402,2.2052 -13.563,5.9372 -21.9687,11.2188 l -7.375,-7.5938 37.625,-36.625 z m -2141.37502,338.125 1042.84372,0 0,486.1563 -58.4063,0 c -15.675,-72.645 -40.9569,-150.4746 -75.8437,-233.5 -34.383,-83.0228 -66.2374,-127.7058 -95.5625,-134.0938 -16.1806,-3.1917 -36.143,-6.0098 -59.9062,-8.4062 -23.765,-2.3935 -44.2472,-3.5922 -61.4376,-3.5938 l -35.6562,0 0,1332.78124 c -7e-4,28.739402 3.3013,54.303802 9.875,76.656302 6.5724,21.5544996 19.4733,38.6959 38.6875,51.4687 11.6285,7.185 29.5733,14.7672 53.8437,22.75 24.7747,7.185 45.7457,12.4007 62.9376,15.5938 l 0,93.374998 -599.90627,0 0,-93.374998 c 14.66272,-2.3948 35.14502,-5.602 61.4375,-9.5938 26.79751,-4.7896 44.98667,-10.3634 54.59377,-16.75 19.7188,-12.7727 32.864,-29.9454004 39.4375,-51.5 6.5726,-21.554 9.8746,-47.1185 9.875,-76.6562 l 0,-1344.750042 -35.6563,0 c -17.1914,0 -37.67368,1.2004 -61.43747,3.5938 -23.76439,2.3965 -43.72668,5.2145 -59.90625,8.4062 -29.32614,6.388 -61.45619,51.0711 -96.34375,134.0938 -34.38223,83.0254 -59.38838,160.8551 -75.0625,233.5 l -58.40625,0 0,-486.1563 z m 1104.28122,0 603.6875,0 c 134.9996,0 237.4111,33.5375 307.1875,100.5937 70.2801,66.2614 105.4052,166.8373 105.4062,301.75 -9e-4,118.9493 -21.7365,214.76124 -65.2187,287.40634 -42.9786,71.8488 -108.705,128.131 -197.1875,168.8437 34.3813,70.2521 74.3059,151.6781 119.8125,244.2813 46.0104,92.6044 93.792,187.1861 143.3437,283.7813 15.6733,31.1342 36.9199,69.465302 63.7188,114.968702 27.3023,44.7054996 51.3309,72.2471 72.0625,82.625 11.628,5.5883 26.2708,10.3836 43.9687,14.375 18.2012,3.9916 31.102,6.3893 38.6876,7.1875 l 0,93.374998 -412.5938,0 c -71.2931,-172.434598 -130.6913,-309.7223 -178.2188,-411.9062 -47.0232,-102.1832 -105.6882,-220.3522 -175.9687,-354.4688 l -41.6875,0 0,516.125002 c -5e-4,28.7394 3.2702,53.0737 9.8438,73.0312 7.078,19.9578996 20.2234,36.7414 39.4374,50.3126 9.6063,6.3865 24.5247,13.159 44.75,20.3437 20.73,6.3866 38.4302,10.7927 53.0938,13.1875 l 0,93.374998 -574.125,0 0,-93.374998 c 14.6629,-2.3948 33.8608,-5.602 57.625,-9.5938 24.2696,-4.7896 41.4812,-10.3634 51.5938,-16.75 19.2132,-12.7727 32.083,-28.7466004 38.6562,-47.9062004 6.5728,-19.9574996 9.8748,-45.1014996 9.875,-75.4374996 l 0,-1198.656342 c -2e-4,-28.7375 -2.7821,-52.7139 -8.3438,-71.875 -5.5619,-19.1577 -18.9516,-35.9101 -40.1874,-50.2812 -16.1801,-10.3764 -35.4092,-19.1573 -57.6563,-26.3438 -21.7417,-7.183 -38.9221,-12.3676 -51.5625,-15.5624 l 0,-93.4063 z m 427,108.9687 0,711.28134 57.625,0 c 74.3254,9e-4 131.9817,-30.7168 172.9375,-92.1875 40.9544,-61.4688 61.4055,-158.8687 61.4063,-292.18754 -9e-4,-113.3585 -20.2075,-195.9834 -60.6563,-247.875 -39.9446,-52.6868 -97.0808,-79.0296 -171.4063,-79.0313 l -59.9062,0 z m 618.9375,1780.40634 37.7187,40.0313 -9.0937,7.7812 c -9.8095,-7.7271 -20.27,-11.8414 -31.375,-12.375 -11.0923,-0.6962 -21.0338,2.7038 -29.8125,10.2188 -7.1985,6.1622 -11.2988,12.8063 -12.3438,19.9374 -1.0445,7.1315 0.6101,13.2523 4.9688,18.3438 3.3818,3.9505 6.835,6.6813 10.4062,8.1875 3.6594,1.4313 7.638,1.8924 11.9376,1.4063 4.1365,-0.4989 8.8844,-1.6357 14.1874,-3.4376 5.316,-1.9643 11.7151,-4.521 19.25,-7.625 7.3723,-3.116 14.6793,-5.6304 21.875,-7.5312 7.2837,-1.9757 13.8591,-2.8789 19.75,-2.75 6.3048,0.0793 12.1929,1.34 17.6563,3.8125 5.4633,2.4728 10.7336,6.6868 15.8437,12.6563 10.2956,12.0268 14.1914,25.7471 11.6876,41.125 -2.4165,15.3026 -10.7534,29.063 -25.0626,41.3124 -7.5497,6.4631 -15.6995,11.0793 -24.4374,13.8438 -8.6504,2.6895 -15.325,4.0778 -20,4.125 l 4.6874,10.8125 -9.875,8.4375 -39.9687,-44.0312 9.0937,-7.7813 c 3.6333,2.8225 8.5285,5.5452 14.7188,8.1563 6.1903,2.6108 12.5019,4.3748 18.9062,5.2812 6.7304,0.9318 13.5988,0.6746 20.5938,-0.75 7.0827,-1.4996 13.5929,-4.7961 19.5625,-9.9062 8.4275,-7.2146 13.3227,-14.6611 14.6563,-22.3438 1.2581,-7.7703 -1.1631,-15.2017 -7.25,-22.3125 -3.1566,-3.6869 -6.6284,-6.2376 -10.375,-7.5937 -3.7345,-1.5191 -7.8687,-2.0731 -12.4063,-1.6876 -4.6255,0.4611 -9.7147,1.6919 -15.2813,3.7188 -5.6414,1.9394 -11.7178,4.3651 -18.25,7.2188 -5.1778,2.3031 -11.2296,4.5607 -18.125,6.8124 -6.8823,2.089 -13.3582,3.2222 -19.4374,3.4063 -6.493,0.2342 -12.8656,-0.8145 -19.1563,-3.1875 -6.2906,-2.3728 -12.0333,-6.5989 -17.2187,-12.6562 -9.0933,-10.6223 -12.8694,-23.0186 -11.2813,-37.1563 1.5883,-14.1375 9.0255,-26.871 22.2813,-38.2187 5.0914,-4.3588 10.8243,-8.12 17.2187,-11.3126 6.4823,-3.2671 12.1797,-5.4251 17.0937,-6.4374 l -2.8124,-9.4376 9.4687,-8.0937 z m -1958.56247,7.3125 91.53125,65.0938 c 18.64492,13.2624 30.5661,28.5339 35.71875,45.8124 5.31324,17.252 2.64981,33.3712 -8,48.3438 -7.43524,10.4526 -16.12771,18.255 -26.03125,23.4062 -9.74289,5.1241 -20.0921,7.728 -31.09375,7.8438 -10.90792,0.1828 -21.53317,-1.5405 -31.84375,-5.1875 -10.31095,-3.647 -20.27007,-8.8867 -29.875,-15.7187 l -22.46875,-15.9688 -43.1875,60.75 c -2.34445,3.2958 -3.91492,6.5644 -4.6875,9.8438 -0.6116,3.2519 0.32887,6.739 2.78125,10.4687 1.22606,1.8648 3.75801,4.6083 7.59375,8.1875 3.92972,3.6461 7.64476,6.7668 11.15625,9.4062 l -7.125,10.0313 -86.03125,-61.1875 7.125,-10.0312 c 2.39396,1.4191 5.86502,3.3942 10.4375,5.9374 4.66658,2.6106 8.14409,4.1415 10.375,4.5938 3.69575,0.7853 6.97623,0.4522 9.875,-1.0312 2.99283,-1.4167 5.79391,-3.9525 8.40625,-7.625 l 102.875,-144.6563 c 2.34419,-3.2957 4.00352,-6.5995 4.9375,-9.9063 0.93364,-3.3061 0.10879,-6.8594 -2.4375,-10.6562 -2.70777,-3.7693 -5.66295,-7.14 -8.90625,-10.1562 -3.08247,-3.0434 -5.84159,-5.5654 -8.25,-7.5626 l 7.125,-10.0312 z m 49.6875,52.7812 -63,88.5626 14.40625,10.25 c 10.16994,7.2338 19.51145,11.526 28.03125,12.9062 8.68058,1.3531 16.29276,0.806 22.84375,-1.625 6.41661,-2.2426 11.86037,-5.3717 16.3125,-9.4375 4.51866,-4.1599 8.15977,-8.1702 10.90625,-12.0313 3.81772,-5.3674 7.05368,-11.3188 9.6875,-17.8124 2.72749,-6.4267 4.00384,-12.8024 3.84375,-19.1563 -0.14797,-6.7701 -2.03047,-13.2961 -5.65625,-19.5625 -3.62627,-6.2662 -9.46474,-12.2439 -17.46875,-17.9375 l -19.90625,-14.1563 z m 1616.09367,42.9063 3.4063,1 118.875,202.1563 c 2.0502,3.4863 4.3888,6.0017 7.0313,7.5312 2.5834,1.43 5.6894,1.9098 9.2812,1.4062 2.7772,-0.2925 5.3652,-0.8305 7.75,-1.5624 2.4843,-0.7909 5.1308,-1.8678 7.9375,-3.25 l 5.7813,9.875 -71.875,42.25 -5.7813,-9.8438 c 2.1739,-1.5465 4.496,-3.184 6.9687,-4.9062 2.4143,-1.8219 4.3183,-3.4749 5.7188,-4.9688 2.2619,-2.5367 3.4255,-5.3321 3.5312,-8.3438 0.047,-3.1111 -0.9536,-6.4451 -3.0624,-10.0312 l -100.375,-170.6562 c -0.897,-1.5254 -1.8989,-2.8907 -3.0313,-4.1563 -0.9796,4.2144 -3.8836,7.5433 -8.75,10 -3.1979,1.6148 -6.3784,2.4038 -9.5313,2.3125 -3.0495,-0.1429 -6.1658,-0.8344 -9.375,-2.0625 -3.2089,-1.2276 -6.413,-2.8406 -9.625,-4.8437 -3.2118,-2.0029 -5.8765,-3.5898 -8,-4.7188 -6.7552,3.7992 -9.6723,11.3734 -8.75,22.6875 0.9739,11.1594 6.5941,26.9499 16.9063,47.375 l 7.9063,15.625 39.3124,-19.8437 7.5,14.8437 -39.3124,19.8437 55.3124,109.5626 c 1.8231,3.6104 3.9819,6.2201 6.4688,7.8124 2.59,1.5406 5.6542,2.1258 9.2188,1.75 2.9443,-0.3213 6.6548,-1.2231 11.0937,-2.6874 4.3866,-1.5677 8.1229,-3.0083 11.2187,-4.3126 l 5.1563,10.2188 -80.4687,40.625 -5.1563,-10.2188 c 2.2685,-1.4039 4.5971,-2.8249 6.9687,-4.2812 2.4748,-1.5083 4.4869,-3.0372 6.0313,-4.5938 2.4197,-2.3865 3.711,-5.0533 3.9063,-8 0.2462,-3.1015 -0.5626,-6.505 -2.4376,-10.2187 l -56.0937,-111.125 -30.1875,15.25 -7.5,-14.875 30.1875,-15.2187 -4.9375,-9.75 c -11.7184,-23.2104 -15.1956,-44.9944 -10.4688,-65.375 4.7781,-20.5355 16.1976,-35.3854 34.25,-44.5 4.6146,-2.3298 8.8841,-3.88 12.8126,-4.7188 l 34.1874,-23.0625 z m 183.9688,2.75 c 5.0999,-0.0124 10.0237,0.6551 14.7812,2 8.0697,2.2406 15.653,6.212 22.7813,11.9375 7.2228,5.6595 13.8074,12.7089 19.7187,21.125 l 6.5626,9.3438 -92.625,65.0624 c 6.4425,9.1731 13.1444,16.9124 20.0937,23.1876 7.0438,6.2085 14.451,10.7955 22.2187,13.8124 7.5406,2.8945 15.4093,3.8756 23.625,2.9063 8.1495,-1.0637 16.3352,-4.5027 24.5626,-10.2813 8.4162,-5.9112 14.2959,-12.9031 17.625,-21.0312 3.3568,-8.2889 4.2805,-19.5517 2.7812,-33.75 l 14.2188,-0.875 c 1.9742,15.2768 0.3729,29.6917 -4.8126,43.2188 -5.1855,13.527 -14.1712,24.7522 -26.9374,33.7187 -11.2536,7.9039 -22.5121,12.869 -33.8126,14.875 -11.2057,1.9396 -21.9518,1.4253 -32.2187,-1.5313 -10.267,-2.9562 -19.9439,-8.0041 -29.0625,-15.1562 -9.024,-7.2185 -17.1118,-15.8815 -24.2188,-26 -6.376,-9.0782 -11.195,-18.9636 -14.4687,-29.6562 -3.2454,-10.8536 -4.5393,-21.7396 -3.875,-32.6563 0.6745,-10.4999 3.5688,-20.5731 8.6563,-30.2187 5.1156,-9.8064 12.6331,-18.1821 22.5624,-25.1563 10.2131,-7.1731 20.0854,-11.7257 29.625,-13.625 4.1739,-0.8307 8.2522,-1.2404 12.2188,-1.25 z m -17.1562,19.5625 c -5.7088,-0.0854 -11.5425,1.9408 -17.5,6.125 -9.9294,6.9742 -15.2878,16.9666 -16.0626,29.9375 -0.7462,12.8102 3.7686,26.7869 13.5626,41.9375 l 64.6874,-45.4375 c -3.7193,-5.2955 -8.1783,-10.6429 -13.375,-16.0313 -5.1019,-5.454 -10.0643,-9.5158 -14.9062,-12.1874 -5.2303,-2.8224 -10.6976,-4.258 -16.4062,-4.3438 z m -1718.37502,54.9688 51.40622,24.5937 0.9063,3.3125 -11.8125,20.9688 0.75,0.4374 c 10.8352,-4.6412 21.2782,-6.923 31.3125,-6.8437 10.0339,0.0795 18.2183,1.8972 24.5625,5.4687 6.3437,3.5719 10.3345,8.5355 11.9374,14.875 1.7035,6.3966 0.5991,13.0832 -3.3124,20.0313 -2.8918,5.1356 -6.7463,8.9834 -11.5313,11.5937 -4.7287,2.5101 -9.7014,2.2919 -14.9375,-0.6562 -5.6392,-3.1748 -9.1546,-7.0664 -10.5312,-11.6875 -1.2763,-4.5643 -0.9219,-8.6005 1.0625,-12.125 1.2471,-2.2153 2.5522,-4.1387 3.875,-5.7813 1.4231,-1.5857 2.771,-3.2011 4.0937,-4.8437 -4.7329,-2.6645 -11.3456,-3.8797 -19.8437,-3.625 -8.4984,0.2549 -16.9447,2.6645 -25.3438,7.2187 l -48.81247,86.6876 c -1.98434,3.5243 -2.93689,6.7663 -2.875,9.7187 0.16244,3.009 1.39083,5.9045 3.6875,8.6563 1.95042,2.424 4.73119,4.9729 8.375,7.6874 3.74434,2.7713 7.03682,5.0919 9.84375,6.9376 l -5.625,9.9687 -78.53125,-44.2187 5.59375,-9.9688 c 2.42941,1.1026 4.9386,2.2158 7.46875,3.375 2.63079,1.2159 5.00351,2.0524 7.15625,2.4688 3.32973,0.681 6.28739,0.2908 8.84375,-1.1876 2.71367,-1.5223 5.084,-4.1247 7.125,-7.75 l 51.78125,-91.9687 c 1.75739,-3.1215 2.74706,-6.6286 2.9375,-10.5 0.29093,-3.8145 -0.3712,-7.3695 -1.96875,-10.6563 -1.23303,-2.2853 -3.00918,-4.3973 -5.34375,-6.375 -2.27806,-2.0778 -4.8738,-4.0664 -7.78125,-5.9687 l 5.53125,-9.8437 z m 1385.71872,16.2187 c 2.9134,-0.0173 5.7653,0.618 8.5625,1.875 5.6554,2.3629 9.6573,6.235 11.9688,11.6563 2.5832,6.0594 2.8094,12.2383 0.7187,18.5312 -2.0297,6.1418 -5.9659,10.4763 -11.8125,12.9688 -5.4214,2.3114 -11.0539,2.1863 -16.9062,-0.3438 -5.7915,-2.6813 -9.8621,-6.7846 -12.2188,-12.3125 -2.4926,-5.8464 -2.6999,-11.777 -0.625,-17.8125 2.1814,-6.0803 5.9849,-10.282 11.4062,-12.5938 3.0299,-1.2914 5.9929,-1.9514 8.9063,-1.9687 z m -101.6875,61.375 c 6.8389,0.0406 13.4323,0.9309 19.7812,2.6875 8.2102,2.3006 15.4468,6.3991 21.75,12.3125 6.2691,5.8035 10.9568,13.7345 14.0626,23.7813 2.7981,9.0533 3.9225,17.4727 3.3124,25.2812 -0.6102,7.809 -2.8476,15.093 -6.6874,21.8438 -3.5011,6.2833 -8.1992,12.2859 -14.0626,17.9687 -5.8975,5.5728 -12.6413,10.8525 -20.2812,15.875 16.3362,11.7631 29.921,21.7102 40.7812,29.8437 10.9705,8.0998 24.3638,17.9319 40.1563,29.5 6.9053,5.1231 12.7709,8.7116 17.625,10.7188 4.93,1.8628 9.6463,3.176 14.125,3.9688 3.314,0.5479 7.2363,0.5581 11.7813,0 4.5443,-0.5582 8.2826,-1.2543 11.1874,-2.0313 l 3.625,11.7813 -63.2812,19.5312 c -20.8131,-17.6364 -39.3673,-32.6938 -55.6875,-45.1875 -16.21,-12.5277 -33.5583,-25.2488 -52.0625,-38.1563 l -24.0312,7.4376 23.0312,74.5312 c 1.1944,3.8642 2.864,7.082 5,9.6875 2.1017,2.4952 5.3913,3.9018 9.8438,4.2187 2.226,0.1587 5.9206,-0.1892 11.0937,-1.0624 5.1729,-0.8734 9.4807,-1.8025 12.9375,-2.75 l 3.6562,11.7812 -99.375,30.7188 -3.625,-11.7813 c 2.5816,-1.0399 6.2649,-2.5997 11.0626,-4.6875 4.9077,-2.1219 8.2231,-3.9399 9.9374,-5.4375 2.8687,-2.4591 4.5742,-5.265 5.1563,-8.4687 0.6924,-3.2381 0.3934,-7.0067 -0.9375,-11.3126 l -52.5312,-169.9374 c -1.1947,-3.8642 -2.8183,-7.1103 -4.8438,-9.75 -2.0255,-2.6396 -5.3122,-4.0919 -9.875,-4.375 -3.0673,-0.1405 -6.9073,0.0954 -11.5625,0.6874 -4.6892,0.4822 -8.6216,1.078 -11.7813,1.8126 l -3.6562,-11.75 108.5,-33.5313 c 9.9364,-3.0712 19.567,-4.9013 28.9375,-5.5 2.3341,-0.1771 4.6579,-0.2635 6.9375,-0.25 z m -1124.3438,6.5 c 9.7066,0.0315 19.416,2.2514 29.1563,6.5937 11.3987,5.0824 20.3788,11.2257 26.9063,18.4376 6.5266,7.2118 10.9287,15.0454 13.2187,23.5312 2.2197,8.0752 2.6916,16.6309 1.4375,25.6875 -1.1489,9.1038 -3.8122,18.3565 -8,27.75 l -4.6562,10.4687 -103.375,-46.0937 c -4.5648,10.2379 -7.7762,19.94 -9.5938,29.125 -1.7122,9.2322 -1.8673,17.9726 -0.4688,26.1875 1.387,7.9568 4.6068,15.1969 9.6563,21.75 5.0964,6.4475 12.255,11.7186 21.4375,15.8125 9.3934,4.188 18.4093,5.6282 27.0938,4.3125 8.8364,-1.3743 18.9913,-6.362 30.4062,-14.9375 l 8.0312,11.75 c -12.0963,9.5368 -25.2919,15.5681 -39.5624,18.0625 -14.271,2.4943 -28.5015,0.5713 -42.75,-5.7812 -12.5602,-5.5998 -22.6024,-12.7384 -30.125,-21.4063 -7.4173,-8.6209 -12.5165,-18.109 -15.25,-28.4375 -2.7336,-10.3285 -3.3629,-21.253 -1.9063,-32.75 1.5621,-11.4499 4.8712,-22.8003 9.9063,-34.0938 4.5173,-10.1322 10.5043,-19.3576 18,-27.6562 7.648,-8.3569 16.3218,-15.0596 26.0312,-20.0938 9.357,-4.8112 19.4857,-7.5078 30.375,-8.0937 0.6901,-0.0403 1.4034,-0.0753 2.0938,-0.0937 0.647,-0.0173 1.2905,-0.0334 1.9374,-0.0313 z m 1267.5626,10 3.1874,1.2813 54.6563,128.2187 c 1.5862,3.7206 3.6069,6.488 6.0313,8.3437 2.5304,1.8107 5.5748,2.6452 9.1562,2.5 2.7465,-0.04 5.3707,-0.2172 7.875,-0.5312 2.4589,-0.4202 5.1141,-1.0967 7.9688,-2.0625 l 4.5,10.5 -76.0626,32.4375 -4.5,-10.5312 c 2.3543,-1.2552 4.7582,-2.5122 7.2188,-3.8126 2.5669,-1.3456 4.671,-2.7651 6.3125,-4.2187 2.5685,-2.2257 4.0526,-4.791 4.4375,-7.7187 0.4458,-3.0797 -0.1498,-6.5483 -1.7812,-10.375 l -41.4063,-97.0938 c -1.4502,-3.4015 -3.5396,-6.1344 -6.3125,-8.2188 -2.7119,-2.2354 -5.8578,-3.7335 -9.4375,-4.4687 -2.5636,-0.4144 -5.9355,-0.2185 -10.125,0.5625 -4.2347,0.675 -8.0015,1.5719 -11.2813,2.7188 l -4.4062,-10.3438 53.9688,-27.1875 z m -170.1563,3.8125 c -5.7282,0.0111 -11.8542,1.0158 -18.375,3.0312 l -28.1563,8.7188 31.1563,100.8438 21.7187,-6.6876 c 15.236,-4.7092 26.4084,-13.5191 33.5626,-26.375 7.1196,-12.9654 8.0935,-27.8118 2.9062,-44.5937 -4.4026,-14.2421 -11.958,-24.2448 -22.6875,-30 -6.0546,-3.2991 -12.7602,-4.9518 -20.125,-4.9375 z m -1088.5313,1.1562 c -6.3435,-0.088 -12.7647,1.566 -19.25,4.9376 -11.3764,5.9355 -21.0259,16.9736 -29,33.1562 l 72.1876,32.1875 c 2.6347,-5.9105 4.9185,-12.462 6.875,-19.6875 2.0613,-7.1783 3.0055,-13.5358 2.8124,-19.0625 -0.2629,-5.9373 -1.8305,-11.3693 -4.6874,-16.3125 -2.8576,-4.943 -7.6009,-8.9103 -14.25,-11.875 -4.8488,-2.1616 -9.7535,-3.2751 -14.6876,-3.3438 z m 411.75,17.4376 c 1.0656,-0.003 2.1269,0.08 3.2188,0.25 6.5085,1.0126 11.4883,4.0637 14.9062,9.1562 3.55,4.9966 4.8747,10.4267 3.9688,16.25 -1.0127,6.5088 -4.0847,11.8589 -9.1875,16.0938 -4.9711,4.1385 -10.5948,5.727 -16.875,4.75 -5.8236,-0.9058 -10.5591,-3.9761 -14.1875,-9.2188 -3.4966,-5.3387 -4.7676,-10.9683 -3.8438,-16.9062 0.9772,-6.2801 3.9219,-11.4442 8.875,-15.4688 4.1175,-3.2552 8.5087,-4.8938 13.125,-4.9062 z m -334.375,12.625 56.0626,11.9374 1.6562,3 -6.6562,23.5 1.1562,0.3438 c 3.5682,-1.9899 7.8935,-4.2941 12.9688,-6.9375 5.0748,-2.6431 9.6721,-4.6439 13.7812,-6 4.6482,-1.5631 10.1207,-2.4251 16.4062,-2.5625 6.3969,-0.1056 12.969,0.7934 19.75,2.7188 10.6719,3.0301 19.0332,8.5413 25.0626,16.5 6.0601,7.8474 9.5938,16.313 10.625,25.375 5.1063,-2.7546 9.5838,-5.1494 13.4062,-7.1876 3.9647,-2.1174 8.9254,-4.1478 14.875,-6.0624 5.0447,-1.691 10.6378,-2.6124 16.8125,-2.7813 6.2854,-0.1371 12.9338,0.7928 19.9375,2.7813 13.8954,3.9456 23.598,11.6115 29.125,23.0312 5.5264,11.4199 5.6158,26.5706 0.25,45.4688 l -23.7188,83.5624 c -1.1048,3.8909 -1.3581,7.2832 -0.75,10.2188 0.6395,2.8244 2.3735,5.3756 5.2188,7.625 2.2724,1.7264 4.5557,3.2184 6.8438,4.4688 2.43,1.1703 5.1689,2.3 8.2187,3.4062 l -3.125,11 -80.1875,-22.7812 3.125,-11 7.8438,1.5312 c 2.7306,0.5352 5.1842,0.755 7.375,0.6562 3.3962,-0.1167 6.1727,-1.2147 8.3124,-3.25 2.2823,-2.1149 3.9885,-5.1543 5.125,-9.1562 l 24.0938,-84.875 c 3.2825,-11.5611 3.1617,-21.2283 -0.4062,-28.9688 -3.4261,-7.8197 -9.1078,-12.8525 -17,-15.0937 -5.4475,-1.5466 -10.778,-2.154 -16.0313,-1.8437 -5.2538,0.31 -10.3023,1.3849 -15.1563,3.25 -3.9182,1.5301 -7.4249,3.4285 -10.4687,5.6874 -2.9015,2.1796 -5.1644,4.051 -6.8125,5.625 l -26.9375,94.9063 c -1.105,3.8908 -1.3582,7.2831 -0.75,10.2187 0.6394,2.8244 2.3736,5.3758 5.2187,7.625 2.2728,1.7266 4.344,3.1573 6.1876,4.2813 1.9855,1.0444 4.6028,2.1432 7.875,3.3125 l -3.125,11 -78.5313,-22.3125 3.125,-11 c 2.6198,0.5036 5.1333,0.9969 7.5313,1.4375 2.5084,0.4721 4.8407,0.63 7.0312,0.5312 3.3966,-0.1165 6.1728,-1.1834 8.3125,-3.2187 2.2822,-2.1149 3.9885,-5.1543 5.125,-9.1563 l 24.125,-84.875 c 3.2826,-11.5609 3.1306,-21.2282 -0.4375,-28.9687 -3.4257,-7.8199 -9.0761,-12.8525 -16.9688,-15.0937 -5.447,-1.5468 -10.8398,-2.1088 -16.125,-1.6876 -5.2536,0.3105 -10.3021,1.4163 -15.1562,3.2813 -3.9183,1.5304 -7.4243,3.5188 -10.5312,6 -3.0759,2.3703 -5.3839,4.1656 -6.9376,5.4063 l -26.75,94.2187 c -1.073,3.7796 -1.2053,7.1888 -0.375,10.1875 0.8305,2.9987 2.6099,5.5947 5.3438,7.8125 2.0187,1.7745 4.1809,3.281 6.4688,4.5313 2.2875,1.25 4.9053,2.4251 7.8437,3.5 l -3.125,11 -79.875,-22.6876 3.125,-11 c 2.6199,0.5038 5.3,1.0273 8.0313,1.5626 2.842,0.5668 5.3408,0.7863 7.5312,0.6874 3.3967,-0.1165 6.1729,-1.1834 8.3125,-3.2187 2.2823,-2.1149 3.9886,-5.1855 5.125,-9.1875 l 29.0313,-102.1875 c 1.0098,-3.5572 1.0657,-6.966 0.1874,-10.2187 -0.7355,-3.3323 -2.2716,-6.4283 -4.5937,-9.25 -1.7334,-1.9338 -4.0459,-3.713 -6.9375,-5.375 -2.8602,-1.7731 -5.9157,-3.2681 -9.1875,-4.4376 l 3.0937,-10.8124 z m 280.0626,73.25 60.2187,5.5 2,2.75 -21.4063,137.7187 c -0.6216,3.9965 -0.3884,7.424 0.6876,10.2813 1.1897,2.8748 3.3214,5.1975 6.4374,6.9687 2.3524,1.4185 4.6774,2.6606 6.9688,3.7187 2.309,0.944 4.9416,1.7472 7.875,2.4376 l -1.75,11.3124 -81.7188,-12.7187 1.75,-11.2813 c 2.662,0.1803 5.3803,0.3646 8.1563,0.5626 2.8902,0.2155 5.432,0.1466 7.5937,-0.2188 3.3573,-0.5303 5.9685,-1.9376 7.8438,-4.2188 2.0071,-2.3775 3.3291,-5.6391 3.9688,-9.75 l 16.2187,-104.3124 c 0.5684,-3.654 0.2509,-7.077 -1,-10.3126 -1.119,-3.3314 -3.0072,-6.2638 -5.6563,-8.7812 -1.9562,-1.7076 -4.9377,-3.3531 -8.9062,-4.9062 -3.9509,-1.6673 -7.61,-2.8637 -11,-3.625 l 1.7188,-11.125 z m 495.6562,6.2187 c 12.0267,0 22.0563,3.8133 30.125,11.4375 9.2209,8.7138 14.6816,22.8656 16.375,42.4375 l 7.5,86.5 c 0.3483,4.0296 1.3266,7.3154 2.9375,9.8437 1.6004,2.4134 4.1352,4.1576 7.5937,5.25 2.7376,0.8073 5.3859,1.3936 7.9688,1.75 2.6875,0.2317 5.6624,0.3299 8.9062,0.2813 l 0.9688,11.4063 -83.0625,7.1874 -1,-11.4062 7.9063,-1.375 c 2.7427,-0.4693 5.1119,-1.1299 7.125,-2 3.1335,-1.315 5.347,-3.3062 6.625,-5.9688 1.3823,-2.7871 1.8895,-6.2615 1.5312,-10.4062 l -7.5938,-87.9062 c -1.0358,-11.9736 -4.6037,-20.9369 -10.6874,-26.9063 -5.9792,-6.0941 -13.0448,-8.8007 -21.2188,-8.0937 -5.6416,0.4881 -10.8865,1.8137 -15.6875,3.9687 -4.8014,2.1554 -9.1244,4.9706 -13,8.4375 -3.1198,2.8218 -5.7065,5.839 -7.75,9.0312 -1.9386,3.0679 -3.3932,5.6308 -4.375,7.6876 l 8.5,98.25 c 0.3484,4.0295 1.3267,7.3153 2.9375,9.8437 1.6005,2.4134 4.1352,4.1573 7.5938,5.25 2.7373,0.8071 5.1589,1.4162 7.2812,1.8125 2.2271,0.2713 5.0885,0.3811 8.5625,0.3125 l 0.9687,11.375 -81.3437,7.0313 -0.9687,-11.375 c 2.6277,-0.4595 5.1333,-0.9044 7.5312,-1.3438 2.5128,-0.4493 4.7685,-1.1299 6.7812,-2 3.1341,-1.315 5.3475,-3.3062 6.625,-5.9688 1.3829,-2.7871 1.8897,-6.2301 1.5313,-10.375 l -7.5937,-87.9062 c -1.0362,-11.9734 -4.6037,-20.9369 -10.6876,-26.9062 -5.9787,-6.0944 -13.0446,-8.8008 -21.2187,-8.0938 -5.6415,0.4882 -10.8651,1.8548 -15.6563,4.125 -4.801,2.1554 -9.1555,4.9706 -13.0312,8.4375 -3.1197,2.8218 -5.6638,5.9523 -7.6875,9.375 -2.0338,3.3078 -3.582,5.82 -4.5937,7.5313 l 8.4374,97.5624 c 0.3388,3.9147 1.4403,7.1166 3.2813,9.625 1.8408,2.5088 4.438,4.3349 7.7813,5.4376 2.5172,0.942 5.0735,1.581 7.6562,1.9374 2.5826,0.3568 5.434,0.5075 8.5625,0.4688 l 0.9687,11.4062 -82.7187,7.1563 -0.9687,-11.4063 c 2.6278,-0.4591 5.3192,-0.9055 8.0624,-1.375 2.8586,-0.4791 5.2687,-1.1611 7.2813,-2.0312 3.134,-1.315 5.3474,-3.3062 6.625,-5.9688 1.3827,-2.7871 1.8898,-6.2615 1.5313,-10.4062 l -9.1563,-105.8438 c -0.3187,-3.6838 -1.4616,-6.896 -3.4375,-9.625 -1.8708,-2.8537 -4.3899,-5.1864 -7.5625,-7 -2.307,-1.192 -5.1129,-2.0665 -8.4063,-2.5937 -3.3031,-0.642 -6.6824,-0.9121 -10.1562,-0.8437 l -0.9688,-11.2188 56.6563,-8.75 2.625,2.2188 2.0937,24.3437 1.2188,-0.0937 c 2.6292,-3.1272 5.8501,-6.8207 9.6562,-11.0938 3.8062,-4.2728 7.3902,-7.7734 10.75,-10.5 3.7907,-3.1115 8.6101,-5.8586 14.4376,-8.2188 5.9422,-2.3695 12.4144,-3.861 19.4374,-4.4687 11.0526,-0.9559 20.8193,1.2319 29.2813,6.5313 8.4518,5.1844 14.7564,11.832 18.9375,19.9374 3.7959,-4.3877 7.119,-8.2374 9.9688,-11.5 2.9543,-3.3872 6.8675,-7.0352 11.75,-10.9374 4.1156,-3.3718 9.0375,-6.2122 14.75,-8.5626 5.827,-2.3595 12.3716,-3.8721 19.625,-4.5 1.7986,-0.1554 3.5631,-0.2187 5.2812,-0.2187 z m -352.3125,9.4375 2.4375,2.5938 -7.625,118.5 c -0.7936,12.3393 1.365,21.7916 6.5,28.375 5.1349,6.5832 11.5859,10.128 19.3125,10.625 6.3426,0.4077 12.04,-0.2022 17.125,-1.8438 5.0848,-1.6416 9.3911,-3.6877 12.9063,-6.125 3.2691,-2.2215 6.1476,-4.5896 8.625,-7.0938 2.5996,-2.6117 4.6142,-5.0249 6.0312,-7.25 l 6.2188,-96.6874 c 0.2443,-3.8055 -0.3524,-7.2005 -1.7813,-10.1876 -1.4218,-3.1019 -3.5006,-5.8011 -6.25,-8.0624 -1.9869,-1.5173 -5.0509,-2.5335 -9.1875,-3.0313 -4.0141,-0.6054 -8.5658,-1.1617 -13.625,-1.7187 l 0.7188,-11.25 62.1874,-0.1876 2.4688,2.5938 -8.7188,135.4688 c -0.2521,3.9209 0.3446,7.316 1.7813,10.1874 1.4363,2.8716 3.524,5.3542 6.2813,7.5 1.9938,1.4022 4.4276,2.4471 7.2812,3.0938 2.8606,0.5314 6.0163,0.9747 9.4688,1.3125 l -0.75,11.2187 -55.75,0.25 -2.4376,-2.5937 1.375,-21.625 -1.0312,-0.0625 c -2.9533,2.7051 -6.2629,5.6282 -9.9375,8.75 -3.6674,3.0065 -7.832,5.6681 -12.5,8.0312 -5.3898,2.7801 -10.5528,4.8221 -15.5,6.125 -4.9474,1.3033 -11.8703,1.6649 -20.75,1.0938 -15.1072,-0.9716 -26.3295,-6.5922 -33.6563,-16.9062 -7.2039,-10.4222 -10.2088,-25.0463 -9,-43.8438 l 5.25,-81.6562 c 0.2672,-4.1515 -0.3134,-7.6596 -1.75,-10.5313 -1.3136,-2.9793 -3.3849,-5.6062 -6.25,-7.875 -1.9866,-1.5172 -4.5171,-2.6605 -7.5937,-3.4375 -3.0692,-0.892 -6.3365,-1.5467 -9.7813,-2 l 0.7188,-11.25 57.1875,-0.5 z"
       id="path2985"
       inkscape:connector-curvature="0" />
    <path
       style="fill:none"
       d="m 562.15564,-1186.6486 c 229.643,-663.1699 953.41116,-1014.6125 1616.58056,-784.9697 663.1698,229.6431 1014.6122,953.411 784.9695,1616.58075 C 2734.0623,308.13225 2010.2945,659.57491 1347.1249,429.93192 683.95507,200.28877 332.51238,-523.47906 562.15564,-1186.6486 z"
       id="path3064"
       inkscape:connector-curvature="0" />
  </g>
</svg>
