<?xml version="1.0" encoding="UTF-8" standalone="no"?>
<!-- Created with Inkscape (http://www.inkscape.org/) -->

<svg
   xmlns:dc="http://purl.org/dc/elements/1.1/"
   xmlns:cc="http://creativecommons.org/ns#"
   xmlns:rdf="http://www.w3.org/1999/02/22-rdf-syntax-ns#"
   xmlns:svg="http://www.w3.org/2000/svg"
   xmlns="http://www.w3.org/2000/svg"
   xmlns:sodipodi="http://sodipodi.sourceforge.net/DTD/sodipodi-0.dtd"
   xmlns:inkscape="http://www.inkscape.org/namespaces/inkscape"
   width="1062.9921"
   height="1062.9921"
   id="svg2"
   version="1.1"
   inkscape:version="0.48.3.1 r9886"
   sodipodi:docname="TR.svg">
  <defs
     id="defs4" />
  <sodipodi:namedview
     id="base"
     pagecolor="#ffffff"
     bordercolor="#666666"
     borderopacity="1.0"
     inkscape:pageopacity="0.0"
     inkscape:pageshadow="2"
     inkscape:zoom="0.49497475"
     inkscape:cx="302.23465"
     inkscape:cy="519.71698"
     inkscape:document-units="px"
     inkscape:current-layer="layer1"
     showgrid="false"
     units="cm"
     inkscape:window-width="1301"
     inkscape:window-height="744"
     inkscape:window-x="65"
     inkscape:window-y="24"
     inkscape:window-maximized="1" />
  <metadata
     id="metadata7">
    <rdf:RDF>
      <cc:Work
         rdf:about="">
        <dc:format>image/svg+xml</dc:format>
        <dc:type
           rdf:resource="http://purl.org/dc/dcmitype/StillImage" />
        <dc:title />
      </cc:Work>
    </rdf:RDF>
  </metadata>
  <g
     inkscape:label="Layer 1"
     inkscape:groupmode="layer"
     id="layer1"
     transform="translate(0,10.631225)">
    <path
       style="fill:#000000;fill-opacity:1;fill-rule:nonzero;stroke:none"
       d="M 187.71875 3 C 86.41589 3 4.84375 84.54089 4.84375 185.84375 L 4.84375 880.125 C 4.84375 981.42786 86.41589 1063 187.71875 1063 L 882 1063 C 983.30286 1063 1064.8438 981.42786 1064.8438 880.125 L 1064.8438 185.84375 C 1064.8438 84.54089 983.30286 3 882 3 L 187.71875 3 z M 319.65625 66.15625 L 320.65625 67 L 320.65625 160.46875 C 320.65618 162.58076 320.83468 164.22301 321.21875 165.375 C 321.60268 166.52701 322.22968 167.33251 323.09375 167.8125 C 323.95767 168.1965 325.06217 168.43525 326.40625 168.53125 C 327.75017 168.62725 329.45267 168.7165 331.46875 168.8125 L 331.46875 173 L 308.125 173 L 306.96875 171.96875 L 306.96875 164.9375 C 299.0007 171.4655 291.56821 174.71875 284.65625 174.71875 C 274.76822 174.71875 267.27548 171.345 262.1875 164.625 C 257.09949 157.90502 254.56249 149.42827 254.5625 139.15625 C 254.56249 127.3483 257.72649 117.97456 264.0625 111.0625 C 270.39848 104.15057 279.41297 100.71882 291.125 100.71875 C 297.46095 100.71882 302.80494 101.85232 307.125 104.15625 L 307.125 80.53125 C 307.12494 78.035345 306.73669 76.335097 305.96875 75.375 C 305.20069 74.319099 304.03594 73.781349 302.5 73.78125 C 301.05995 73.685349 299.2392 73.535849 297.03125 73.34375 L 297.03125 69.75 L 319.65625 66.15625 z M 405.75 66.15625 L 406.78125 67 L 406.78125 160.46875 C 406.78118 162.58076 406.95968 164.22301 407.34375 165.375 C 407.72768 166.52701 408.35468 167.33251 409.21875 167.8125 C 410.08267 168.1965 411.18717 168.43525 412.53125 168.53125 C 413.87517 168.62725 415.54642 168.7165 417.5625 168.8125 L 417.5625 173 L 394.25 173 L 393.09375 171.96875 L 393.09375 164.9375 C 385.1257 171.4655 377.69321 174.71875 370.78125 174.71875 C 360.89322 174.71875 353.40048 171.345 348.3125 164.625 C 343.22449 157.90502 340.65624 149.42827 340.65625 139.15625 C 340.65624 127.3483 343.85149 117.97456 350.1875 111.0625 C 356.52348 104.15057 365.53797 100.71882 377.25 100.71875 C 383.58595 100.71882 388.89869 101.85232 393.21875 104.15625 L 393.21875 80.53125 C 393.21869 78.035345 392.86169 76.335097 392.09375 75.375 C 391.32569 74.319099 390.16094 73.781349 388.625 73.78125 C 387.18495 73.685349 385.3642 73.535849 383.15625 73.34375 L 383.15625 69.75 L 405.75 66.15625 z M 775.125 70.03125 C 777.71698 70.031353 779.83672 70.897102 781.46875 72.625 C 783.10072 74.257099 783.90622 76.376847 783.90625 78.96875 C 783.90622 81.560841 783.10072 83.649339 781.46875 85.28125 C 779.83672 86.817336 777.71698 87.593835 775.125 87.59375 C 772.53298 87.593835 770.41323 86.817336 768.78125 85.28125 C 767.14924 83.649339 766.34374 81.560841 766.34375 78.96875 C 766.34374 76.376847 767.14924 74.257099 768.78125 72.625 C 770.41323 70.897102 772.53298 70.031353 775.125 70.03125 z M 78.15625 73.34375 L 161.25 73.34375 L 161.25 97.25 L 156.9375 97.25 C 156.07342 89.186084 154.28167 84.051839 151.59375 81.84375 C 149.00168 79.539843 143.56843 78.375095 135.3125 78.375 L 126.84375 78.375 L 126.84375 159.59375 C 126.8437 162.56976 127.08245 164.51101 127.5625 165.375 C 128.04245 166.43101 129.32545 167.23651 131.4375 167.8125 C 133.64544 168.3885 135.70494 168.6875 137.625 168.6875 C 139.64094 168.6875 141.34343 168.7165 142.6875 168.8125 L 142.6875 173 L 96.75 173 L 96.75 168.8125 C 98.093977 168.7165 99.704975 168.6875 101.625 168.6875 C 103.64097 168.6875 105.70047 168.3885 107.8125 167.8125 C 110.02046 167.23651 111.36371 166.43101 111.84375 165.375 C 112.32371 164.51101 112.56246 162.56976 112.5625 159.59375 L 112.5625 78.375 L 104.09375 78.375 C 95.837729 78.375095 90.344235 79.539843 87.65625 81.84375 C 85.06424 84.051839 83.332742 89.186084 82.46875 97.25 L 78.15625 97.25 L 78.15625 73.34375 z M 457.15625 73.34375 L 499.21875 73.34375 C 521.77868 73.34385 533.06242 81.552841 533.0625 97.96875 C 533.06242 104.68882 530.85342 110.30056 526.4375 114.8125 C 522.11743 119.22855 516.50569 122.06455 509.59375 123.3125 L 509.59375 123.59375 C 513.81769 124.6498 517.24943 126.2318 519.9375 128.34375 C 522.62543 130.45579 524.50643 132.81429 525.5625 135.40625 C 526.71443 137.99828 527.58017 140.77403 528.15625 143.75 C 528.73217 146.72603 529.20967 149.62227 529.59375 152.40625 C 530.07367 155.19027 530.70067 157.72727 531.46875 160.03125 C 532.33267 162.33526 533.76517 164.30551 535.78125 165.9375 C 537.79716 167.47351 540.54391 168.4285 544 168.8125 L 544 173 L 532.34375 173 C 528.21567 173 524.84193 172.13425 522.25 170.40625 C 519.75393 168.67825 518.02243 166.46926 517.0625 163.78125 C 516.10244 160.99726 515.38619 157.92252 514.90625 154.5625 C 514.42619 151.20252 513.88844 147.82878 513.3125 144.46875 C 512.83244 141.10878 512.02694 138.09428 510.875 135.40625 C 509.81894 132.62229 507.90894 130.35304 505.125 128.625 C 502.34095 126.89705 498.72845 126.06255 494.3125 126.0625 L 484.375 126.0625 L 484.375 159.59375 C 484.37497 162.76176 484.82347 165.03101 485.6875 166.375 C 486.64747 167.62301 488.07996 168.279 490 168.375 C 491.91996 168.471 494.36771 168.6205 497.34375 168.8125 L 497.34375 173 L 457.15625 173 L 457.15625 168.8125 C 460.13224 168.6205 462.57999 168.471 464.5 168.375 C 466.41999 168.279 467.82348 167.62301 468.6875 166.375 C 469.64748 165.03101 470.12498 162.76176 470.125 159.59375 L 470.125 86.75 C 470.12498 83.582089 469.64748 81.373092 468.6875 80.125 C 467.82348 78.781094 466.41999 78.033595 464.5 77.9375 C 462.57999 77.841595 460.13224 77.723345 457.15625 77.53125 L 457.15625 73.34375 z M 492.15625 78.375 C 491.29221 78.375095 490.51571 78.435345 489.84375 78.53125 C 489.17171 78.531344 488.54471 78.620594 487.96875 78.8125 C 487.39271 79.004594 486.88622 79.303594 486.40625 79.6875 C 485.92622 79.975593 485.53797 80.363843 485.25 80.84375 C 484.96197 81.323842 484.72322 81.979841 484.53125 82.84375 C 484.43522 83.611839 484.37497 84.537838 484.375 85.59375 L 484.375 121 L 495.75 121 C 510.34194 121.00005 517.65618 113.74606 517.65625 99.25 C 517.65618 92.242081 515.62569 87.018586 511.59375 83.5625 C 507.56169 80.106593 502.0102 78.375095 494.90625 78.375 C 493.94621 78.375095 493.02021 78.375095 492.15625 78.375 z M 205.875 100.71875 C 217.49095 100.71882 226.14844 103.97207 231.8125 110.5 C 237.57243 116.93206 240.43742 126.0068 240.4375 137.71875 C 240.43742 149.43077 237.57243 158.53451 231.8125 165.0625 C 226.14844 171.4945 217.49095 174.71875 205.875 174.71875 C 194.35497 174.71875 185.72873 171.4655 179.96875 164.9375 C 174.30474 158.40951 171.46874 149.33477 171.46875 137.71875 C 171.46874 126.1028 174.30474 117.02806 179.96875 110.5 C 185.72873 103.97207 194.35497 100.71882 205.875 100.71875 z M 583.59375 100.71875 C 591.2737 100.71882 597.1242 102.09107 601.15625 104.875 C 605.18819 107.65907 607.21869 112.64381 607.21875 119.84375 L 607.21875 154.71875 C 607.21869 157.40677 607.30794 159.49526 607.5 161.03125 C 607.78794 162.56726 608.56444 164.03101 609.8125 165.375 C 611.06043 166.71901 612.88118 167.37501 615.28125 167.375 C 616.72118 167.37501 618.15368 167.22551 619.59375 166.9375 L 620.46875 170.40625 C 614.70868 173.28625 609.03669 174.71875 603.46875 174.71875 C 600.97269 174.71875 599.0627 174.0025 597.71875 172.5625 C 596.3747 171.0265 595.18095 168.87775 594.125 166.09375 C 585.38896 171.85375 578.22422 174.71875 572.65625 174.71875 C 566.51223 174.71875 561.52748 172.83775 557.6875 169.09375 C 553.84749 165.34976 551.90624 160.42526 551.90625 154.28125 C 551.90624 145.73728 556.38449 140.00503 565.3125 137.125 C 568.09648 136.45304 573.17047 134.93129 580.5625 132.53125 C 587.95446 130.03529 592.52195 127.91555 594.25 126.1875 L 594.25 120.15625 C 594.24995 115.83631 593.2347 112.37331 591.21875 109.78125 C 589.20271 107.09332 586.15921 105.75007 582.03125 105.75 C 575.31122 105.75007 570.35547 110.43581 567.1875 119.84375 C 566.70748 121.2838 566.16973 122.3593 565.59375 123.03125 C 565.01773 123.6073 564.00248 123.87505 562.5625 123.875 C 560.64248 123.87505 558.82174 123.2793 557.09375 122.03125 C 555.36574 120.6873 554.49999 119.04505 554.5 117.125 C 554.49999 114.43706 555.57549 111.98931 557.6875 109.78125 C 559.89548 107.47732 562.58198 105.68557 565.75 104.4375 C 569.01398 103.18957 572.17797 102.29482 575.25 101.71875 C 578.41797 101.04682 581.19371 100.71882 583.59375 100.71875 z M 647.8125 100.71875 L 649.125 111.65625 C 653.82897 108.20031 658.09746 105.51382 661.9375 103.59375 C 665.77745 101.67382 669.89645 100.71882 674.3125 100.71875 C 683.24044 100.71882 689.59968 104.38932 693.34375 111.78125 C 694.30368 111.20531 695.82542 110.22131 697.9375 108.78125 C 700.14542 107.24532 701.78767 106.16982 702.84375 105.59375 C 703.99567 104.92182 705.48841 104.14532 707.3125 103.28125 C 709.23241 102.32132 711.05316 101.66532 712.78125 101.28125 C 714.60516 100.89732 716.5754 100.71882 718.6875 100.71875 C 725.69539 100.71882 731.00814 102.77832 734.65625 106.90625 C 738.30413 110.93831 740.12488 116.48981 740.125 123.59375 L 740.125 160.46875 C 740.12488 162.58076 740.33463 164.22301 740.71875 165.375 C 741.10263 166.43101 741.69838 167.17626 742.5625 167.65625 C 743.42638 168.13625 744.53088 168.43525 745.875 168.53125 C 747.21887 168.62725 748.92137 168.7165 750.9375 168.8125 L 750.9375 173 L 715.78125 173 L 715.78125 168.8125 C 717.79715 168.7165 719.49965 168.62725 720.84375 168.53125 C 722.28365 168.43525 723.38815 168.13625 724.15625 167.65625 C 725.02015 167.17626 725.64714 166.43101 726.03125 165.375 C 726.41514 164.22301 726.59364 162.58076 726.59375 160.46875 L 726.59375 126.46875 C 726.59364 114.46881 721.7584 108.46881 712.0625 108.46875 C 706.49441 108.46881 702.16567 110.17131 699.09375 113.53125 C 696.11767 116.79531 694.62493 121.2133 694.625 126.78125 L 694.625 160.46875 C 694.62493 162.58076 694.80343 164.22301 695.1875 165.375 C 695.57142 166.43101 696.19842 167.17626 697.0625 167.65625 C 697.92642 168.13625 699.03092 168.43525 700.375 168.53125 C 701.71892 168.62725 703.42142 168.7165 705.4375 168.8125 L 705.4375 173 L 670.28125 173 L 670.28125 168.8125 C 672.2972 168.7165 673.9997 168.62725 675.34375 168.53125 C 676.78369 168.43525 677.88819 168.13625 678.65625 167.65625 C 679.52019 167.17626 680.11594 166.43101 680.5 165.375 C 680.88394 164.22301 681.09369 162.58076 681.09375 160.46875 L 681.09375 126.46875 C 681.09369 120.7088 680.13869 116.29081 678.21875 113.21875 C 676.29869 110.05081 672.62595 108.46881 667.25 108.46875 C 663.69796 108.46881 660.35546 109.48406 657.1875 111.5 C 654.11547 113.42006 651.81722 115.95706 650.28125 119.125 C 649.51322 120.75705 649.12497 123.3253 649.125 126.78125 L 649.125 160.46875 C 649.12497 162.58076 649.30347 164.22301 649.6875 165.375 C 650.07147 166.43101 650.69847 167.17626 651.5625 167.65625 C 652.42647 168.13625 653.53097 168.43525 654.875 168.53125 C 656.21896 168.62725 657.89021 168.7165 659.90625 168.8125 L 659.90625 173 L 624.78125 173 L 624.78125 168.8125 C 626.79724 168.7165 628.46849 168.62725 629.8125 168.53125 C 631.25249 168.43525 632.35699 168.13625 633.125 167.65625 C 633.98899 167.17626 634.61599 166.43101 635 165.375 C 635.38398 164.22301 635.59373 162.58076 635.59375 160.46875 L 635.59375 115.09375 C 635.59373 112.69381 635.20548 111.02256 634.4375 110.0625 C 633.66949 109.10256 632.50474 108.56481 630.96875 108.46875 C 629.52874 108.37281 627.70799 108.19431 625.5 107.90625 L 625.5 104.3125 L 647.8125 100.71875 z M 781.03125 100.71875 L 782.03125 101.5625 L 782.03125 160.46875 C 782.03122 162.58076 782.24097 164.22301 782.625 165.375 C 783.00897 166.43101 783.60472 167.17626 784.46875 167.65625 C 785.33272 168.13625 786.43722 168.43525 787.78125 168.53125 C 789.12521 168.62725 790.82771 168.7165 792.84375 168.8125 L 792.84375 173 L 757.6875 173 L 757.6875 168.8125 C 759.70349 168.7165 761.40599 168.62725 762.75 168.53125 C 764.18999 168.43525 765.29449 168.1965 766.0625 167.8125 C 766.92649 167.33251 767.55349 166.55601 767.9375 165.5 C 768.32148 164.34801 768.49998 162.67676 768.5 160.46875 L 768.5 115.09375 C 768.49998 112.69381 768.11173 111.02256 767.34375 110.0625 C 766.57574 109.10256 765.41099 108.56481 763.875 108.46875 C 762.43499 108.37281 760.61424 108.19431 758.40625 107.90625 L 758.40625 104.3125 L 781.03125 100.71875 z M 822.21875 100.71875 L 823.9375 112.21875 C 824.99347 111.16281 826.33672 109.96906 827.96875 108.625 C 829.60072 107.28107 831.18271 106.02707 832.71875 104.875 C 834.25471 103.72307 835.92596 102.76807 837.75 102 C 839.57396 101.13607 841.30545 100.71882 842.9375 100.71875 C 845.14545 100.71882 846.9662 101.31457 848.40625 102.5625 C 849.8462 103.81057 850.56244 105.54207 850.5625 107.75 C 850.56244 109.67006 849.9667 111.49081 848.71875 113.21875 C 847.4707 114.94681 845.85745 115.81256 843.9375 115.8125 C 842.97745 115.81256 841.21695 115.18556 838.625 113.9375 C 836.03296 112.59356 833.88421 111.93756 832.15625 111.9375 C 829.27622 111.93756 827.15647 113.57981 825.8125 116.84375 C 824.56447 120.1078 823.93747 123.4213 823.9375 126.78125 L 823.9375 160.46875 C 823.93747 163.44476 824.50422 165.56451 825.65625 166.8125 C 826.80822 168.0605 828.39022 168.6875 830.40625 168.6875 C 832.51821 168.5915 834.93696 168.6205 837.625 168.8125 L 837.625 173 L 799.59375 173 L 799.59375 168.8125 C 801.60974 168.7165 803.28099 168.62725 804.625 168.53125 C 805.96899 168.43525 807.07349 168.13625 807.9375 167.65625 C 808.80149 167.17626 809.42849 166.43101 809.8125 165.375 C 810.19648 164.22301 810.40623 162.58076 810.40625 160.46875 L 810.40625 115.09375 C 810.40623 112.69381 810.01798 111.02256 809.25 110.0625 C 808.48199 109.10256 807.31724 108.56481 805.78125 108.46875 C 804.34124 108.37281 802.52049 108.19431 800.3125 107.90625 L 800.3125 104.3125 L 822.21875 100.71875 z M 891.1875 100.71875 C 900.40345 100.71882 907.56819 103.25582 912.65625 108.34375 C 917.74418 113.43181 920.28118 120.5363 920.28125 129.65625 C 920.28118 133.30429 918.33993 135.12504 914.5 135.125 L 873.03125 135.125 L 873.03125 136.71875 C 873.03123 157.16677 880.10672 167.37501 894.21875 167.375 C 903.3387 167.37501 910.29369 162.30101 915.09375 152.125 L 919.40625 154.40625 C 914.79819 167.94226 905.24595 174.71875 890.75 174.71875 C 868.95798 174.71875 858.06249 162.56926 858.0625 138.28125 C 858.06249 127.1453 860.83824 118.1308 866.40625 111.21875 C 871.97423 104.21082 880.24347 100.71882 891.1875 100.71875 z M 933.8125 102.4375 L 989.09375 102.4375 L 990.25 104.4375 L 945.34375 167.9375 L 963.90625 167.9375 C 971.4902 167.93751 976.95245 166.89326 980.3125 164.78125 C 983.76844 162.57326 986.03769 157.97677 987.09375 150.96875 L 991.5625 150.96875 L 990.125 173 L 928.90625 173 L 927.75 170.84375 L 973.125 107.46875 L 958.71875 107.46875 C 951.42272 107.46882 946.37773 108.48406 943.59375 110.5 C 940.90573 112.42006 939.14524 116.83806 938.28125 123.75 L 933.8125 123.75 L 933.8125 102.4375 z M 205.875 105.75 C 201.93896 105.75007 198.59647 106.79432 195.8125 108.90625 C 193.12447 110.92231 191.15422 113.66906 189.90625 117.125 C 188.65823 120.48505 187.73223 123.82755 187.15625 127.1875 C 186.67623 130.45154 186.43748 133.97479 186.4375 137.71875 C 186.43748 141.46278 186.67623 145.01503 187.15625 148.375 C 187.73223 151.63902 188.65823 154.98152 189.90625 158.4375 C 191.15422 161.79751 193.12447 164.54426 195.8125 166.65625 C 198.59647 168.67225 201.93896 169.6875 205.875 169.6875 C 209.81095 169.6875 213.1847 168.67225 215.96875 166.65625 C 218.7527 164.64026 220.78319 161.89351 222.03125 158.4375 C 223.37519 154.98152 224.26994 151.63902 224.75 148.375 C 225.22994 145.01503 225.46869 141.46278 225.46875 137.71875 C 225.46869 116.40681 218.93095 105.75007 205.875 105.75 z M 291 105.75 C 286.87196 105.75007 283.31971 106.70507 280.34375 108.625 C 277.46372 110.54506 275.25472 113.14231 273.71875 116.40625 C 272.27873 119.6703 271.20323 123.0128 270.53125 126.46875 C 269.85923 129.82879 269.53123 133.50154 269.53125 137.4375 C 269.53123 140.89353 269.83023 144.23603 270.40625 147.5 C 271.07823 150.66802 272.12248 153.80302 273.5625 156.875 C 275.00247 159.85101 277.06197 162.29876 279.75 164.21875 C 282.53396 166.04276 285.75821 166.93751 289.40625 166.9375 C 301.2142 166.93751 307.12494 160.78801 307.125 148.5 L 307.125 123.15625 C 307.12494 117.87631 305.72144 113.66806 302.9375 110.5 C 300.24945 107.33207 296.27995 105.75007 291 105.75 z M 377.09375 105.75 C 372.96571 105.75007 369.41346 106.70507 366.4375 108.625 C 363.55747 110.54506 361.34847 113.14231 359.8125 116.40625 C 358.37248 119.6703 357.32823 123.0128 356.65625 126.46875 C 355.98423 129.82879 355.65623 133.50154 355.65625 137.4375 C 355.65623 140.89353 355.92398 144.23603 356.5 147.5 C 357.17198 150.66802 358.24748 153.80302 359.6875 156.875 C 361.12747 159.85101 363.18697 162.29876 365.875 164.21875 C 368.65896 166.04276 371.88321 166.93751 375.53125 166.9375 C 387.3392 166.93751 393.21869 160.78801 393.21875 148.5 L 393.21875 123.15625 C 393.21869 117.87631 391.84644 113.66806 389.0625 110.5 C 386.37445 107.33207 382.3737 105.75007 377.09375 105.75 z M 890.3125 105.75 C 884.55247 105.75007 880.25497 108.19781 877.375 113.09375 C 874.59098 117.98981 873.18748 123.5123 873.1875 129.65625 L 900.40625 129.65625 C 903.6702 129.65629 905.31245 128.10329 905.3125 125.03125 C 905.31245 119.5593 904.08745 115.02306 901.6875 111.375 C 899.28745 107.63107 895.49646 105.75007 890.3125 105.75 z M 594.25 132.09375 C 592.42595 133.24579 589.71046 134.49979 586.0625 135.84375 C 582.41446 137.09179 579.27947 138.19628 576.6875 139.15625 C 574.09547 140.11628 571.73697 141.75853 569.625 144.0625 C 567.51298 146.27053 566.46873 148.98602 566.46875 152.25 C 566.46873 156.66602 567.57323 160.27851 569.78125 163.0625 C 572.08522 165.75051 575.39872 167.09376 579.71875 167.09375 C 584.13471 167.09376 587.62671 165.75051 590.21875 163.0625 C 592.9067 160.37451 594.24995 156.82227 594.25 152.40625 L 594.25 132.09375 z M 213.03125 237.3125 L 594.59375 237.3125 L 594.59375 347.09375 L 574.78125 347.09375 C 570.81284 310.0591 562.65715 286.4847 550.3125 276.34375 C 538.40804 265.76274 513.47901 260.46918 475.5625 260.46875 L 436.5625 260.46875 L 436.5625 633.46875 C 436.56226 647.13649 437.63904 655.93825 439.84375 659.90625 C 442.04797 664.75611 448.01885 668.51092 457.71875 671.15625 C 467.85903 673.80163 477.3381 675.12502 486.15625 675.125 C 495.41471 675.12502 503.10844 675.34038 509.28125 675.78125 L 509.28125 694.96875 L 298.34375 694.96875 L 298.34375 675.78125 C 304.51615 675.34038 311.99452 675.12502 320.8125 675.125 C 330.07113 675.12502 339.55021 673.80163 349.25 671.15625 C 359.39039 668.51092 365.57662 664.75611 367.78125 659.90625 C 369.98555 655.93825 371.06233 647.13649 371.0625 633.46875 L 371.0625 260.46875 L 332.0625 260.46875 C 294.14558 260.46918 269.00119 265.76274 256.65625 276.34375 C 244.75208 286.4847 236.81175 310.0591 232.84375 347.09375 L 213.03125 347.09375 L 213.03125 237.3125 z M 521.71875 376.25 L 683.9375 376.25 C 770.96877 376.25038 814.46844 407.92102 814.46875 471.25 C 814.46844 497.17455 805.97316 518.84393 788.9375 536.25 C 772.27162 553.28617 750.60223 564.21694 723.9375 569.03125 L 723.9375 570.125 C 740.23253 574.199 753.56753 580.3213 763.9375 588.46875 C 774.30694 596.61655 781.51965 605.68829 785.59375 615.6875 C 790.03763 625.687 793.37138 636.42562 795.59375 647.90625 C 797.81554 659.38711 799.67456 670.47878 801.15625 681.21875 C 803.00768 691.95888 805.41192 701.79923 808.375 710.6875 C 811.70781 719.57587 817.25365 727.14164 825.03125 733.4375 C 832.80821 739.36307 843.35467 743.08113 856.6875 744.5625 L 856.6875 760.6875 L 811.6875 760.6875 C 795.76229 760.6875 782.81159 757.35375 772.8125 750.6875 C 763.18322 744.02127 756.51572 735.49474 752.8125 725.125 C 749.10878 714.38498 746.32024 702.5247 744.46875 689.5625 C 742.61677 676.60044 740.59684 663.64974 738.375 650.6875 C 736.52303 637.72548 733.38143 626.05735 728.9375 615.6875 C 724.86346 604.94759 717.4586 596.22891 706.71875 589.5625 C 695.97849 582.89643 682.06703 579.56268 665.03125 579.5625 L 626.71875 579.5625 L 626.71875 709 C 626.71863 721.22149 628.3855 729.94017 631.71875 735.125 C 635.42209 739.93953 640.96792 742.53592 648.375 742.90625 C 655.78179 743.27661 665.23783 743.82182 676.71875 744.5625 L 676.71875 760.6875 L 521.71875 760.6875 L 521.71875 744.5625 C 533.19947 743.82182 542.65552 743.27661 550.0625 742.90625 C 557.46938 742.53592 562.82307 739.93953 566.15625 735.125 C 569.85965 729.94017 571.71868 721.22149 571.71875 709 L 571.71875 427.90625 C 571.71868 415.68515 569.85965 407.18986 566.15625 402.375 C 562.82307 397.19051 557.46938 394.40196 550.0625 394.03125 C 542.65552 393.66127 533.19947 393.11606 521.71875 392.375 L 521.71875 376.25 z M 656.71875 395.6875 C 653.38548 395.68786 650.40478 395.88002 647.8125 396.25 C 645.21993 396.25036 642.81569 396.63467 640.59375 397.375 C 638.37153 398.11606 636.3516 399.20647 634.5 400.6875 C 632.64813 401.7989 631.14216 403.27362 630.03125 405.125 C 628.92008 406.97709 628.02182 409.57348 627.28125 412.90625 C 626.91078 415.86937 626.71863 419.39527 626.71875 423.46875 L 626.71875 560.125 L 670.59375 560.125 C 726.88626 560.1252 755.031 532.17262 755.03125 476.25 C 755.031 449.21498 747.27308 429.02032 731.71875 415.6875 C 716.16396 402.35537 694.68673 395.68786 667.28125 395.6875 C 663.57762 395.68786 660.05171 395.68786 656.71875 395.6875 z M 802.8125 816.46875 C 806.14688 816.46884 809.43438 817.23612 812.6875 818.78125 C 813.04726 818.93921 813.39781 819.10626 813.71875 819.28125 L 831.34375 816.46875 L 832.21875 817.21875 L 832.21875 896.375 C 832.21873 898.16421 832.36217 899.55533 832.6875 900.53125 C 833.01278 901.42585 833.54928 902.06212 834.28125 902.46875 C 835.01317 902.87539 835.95514 903.13743 837.09375 903.21875 C 838.2323 903.30008 839.63585 903.35618 841.34375 903.4375 L 841.34375 907 L 811.59375 907 L 811.59375 903.4375 C 813.30162 903.35618 814.73641 903.30008 815.875 903.21875 C 817.0949 903.13743 818.00562 902.91906 818.65625 902.59375 C 819.38818 902.18712 819.92468 901.55085 820.25 900.65625 C 820.5753 899.68033 820.74999 898.24553 820.75 896.375 L 820.75 828.65625 C 820.74999 826.54182 820.43186 825.0946 819.78125 824.28125 C 819.25596 823.53093 818.39843 823.09606 817.25 822.96875 C 817.54329 823.70828 817.68749 824.50672 817.6875 825.375 C 817.68745 826.9203 817.09486 828.26775 815.875 829.40625 C 814.65505 830.54491 813.26392 831.12508 811.71875 831.125 C 810.58013 831.12508 809.55081 830.58858 808.65625 829.53125 C 807.84294 828.39275 807.20668 827.21999 806.71875 826 C 806.23075 824.69885 805.41979 823.49484 804.28125 822.4375 C 803.14264 821.29901 801.75151 820.75009 800.125 820.75 C 796.22127 820.75009 794.28123 824.53041 794.28125 832.09375 C 794.28123 833.96435 794.33732 836.67168 794.5 840.25 C 794.66263 843.82846 794.74998 846.16156 794.75 847.21875 L 809.65625 847.21875 L 809.65625 852.09375 L 794.75 852.09375 L 794.75 896.5 C 794.74998 899.02115 795.19913 900.81775 796.09375 901.875 C 797.06965 902.85093 798.4171 903.34375 800.125 903.34375 C 801.83284 903.26243 803.9039 903.27485 806.34375 903.4375 L 806.34375 907 L 774.15625 907 L 774.15625 903.4375 C 775.86411 903.35618 777.26766 903.30008 778.40625 903.21875 C 779.62615 903.13743 780.56812 902.87539 781.21875 902.46875 C 781.95068 902.06212 782.48718 901.42585 782.8125 900.53125 C 783.1378 899.55533 783.28124 898.16421 783.28125 896.375 L 783.28125 852.09375 L 773.90625 852.09375 L 773.90625 847.21875 L 783.28125 847.21875 C 783.28124 843.72175 783.36858 840.83973 783.53125 838.5625 C 783.69389 836.20408 784.14304 833.50918 784.875 830.5 C 785.60693 827.40965 786.63625 824.97678 787.9375 823.1875 C 789.23872 821.31706 791.13509 819.73882 793.65625 818.4375 C 796.17737 817.13636 799.23408 816.46884 802.8125 816.46875 z M 425.375 819.78125 C 427.57081 819.78134 429.36742 820.50495 430.75 821.96875 C 432.13254 823.35139 432.81247 825.148 432.8125 827.34375 C 432.81247 829.53966 432.13254 831.30501 430.75 832.6875 C 429.36742 833.98881 427.57081 834.65632 425.375 834.65625 C 423.17915 834.65632 421.38255 833.98881 420 832.6875 C 418.61743 831.30501 417.93749 829.53966 417.9375 827.34375 C 417.93749 825.148 418.61743 823.35139 420 821.96875 C 421.38255 820.50495 423.17915 819.78134 425.375 819.78125 z M 753.40625 819.78125 C 755.60206 819.78134 757.39867 820.50495 758.78125 821.96875 C 760.16379 823.35139 760.84372 825.148 760.84375 827.34375 C 760.84372 829.53966 760.16379 831.30501 758.78125 832.6875 C 757.39867 833.98881 755.60206 834.65632 753.40625 834.65625 C 751.2104 834.65632 749.4138 833.98881 748.03125 832.6875 C 746.64868 831.30501 745.96874 829.53966 745.96875 827.34375 C 745.96874 825.148 746.64868 823.35139 748.03125 821.96875 C 749.4138 820.50495 751.2104 819.78134 753.40625 819.78125 z M 115.03125 822.5625 L 149.0625 822.5625 C 170.2075 822.56258 180.78118 830.52871 180.78125 846.46875 C 180.78118 852.73099 178.98458 857.98979 175.40625 862.21875 C 171.8278 866.36647 166.91838 869.20482 160.65625 870.75 C 156.42719 871.80729 148.91022 872.34378 138.09375 872.34375 L 138.09375 895.65625 C 138.09372 897.85209 138.23716 899.38666 138.5625 900.28125 C 138.96911 901.25718 140.0421 902.02447 141.75 902.59375 C 143.45784 903.08172 145.12342 903.34375 146.75 903.34375 C 148.45783 903.34375 149.86138 903.35618 151 903.4375 L 151 907 L 115.03125 907 L 115.03125 903.4375 C 117.55238 903.27485 119.62345 903.17508 121.25 903.09375 C 122.87653 903.01243 124.04929 902.43226 124.78125 901.375 C 125.59451 900.23643 125.99998 898.34005 126 895.65625 L 126 833.90625 C 125.99998 831.22253 125.59451 829.36983 124.78125 828.3125 C 124.04929 827.174 122.87653 826.55016 121.25 826.46875 C 119.62345 826.3875 117.55238 826.28773 115.03125 826.125 L 115.03125 822.5625 z M 660.4375 822.5625 L 696.0625 822.5625 C 715.17432 822.56258 724.74993 829.53064 724.75 843.4375 C 724.74993 849.13046 722.86598 853.89643 719.125 857.71875 C 715.46522 861.45984 710.69925 863.84904 704.84375 864.90625 L 704.84375 865.15625 C 708.42209 866.05089 711.34779 867.39834 713.625 869.1875 C 715.9021 870.97673 717.51159 872.96045 718.40625 875.15625 C 719.38211 877.35211 720.10572 879.69764 720.59375 882.21875 C 721.08165 884.73991 721.48713 887.17278 721.8125 889.53125 C 722.21907 891.88975 722.75557 894.04816 723.40625 896 C 724.13813 897.95186 725.35456 899.61745 727.0625 901 C 728.7703 902.30124 731.07215 903.1122 734 903.4375 L 734 907 L 724.125 907 C 720.62787 907 717.78952 906.24514 715.59375 904.78125 C 713.47919 903.31737 712.00072 901.46467 711.1875 899.1875 C 710.37417 896.82902 709.78158 894.22146 709.375 891.375 C 708.96831 888.52857 708.51916 885.69022 708.03125 882.84375 C 707.62456 879.99733 706.91337 877.43344 705.9375 875.15625 C 705.04285 872.7978 703.42094 870.87017 701.0625 869.40625 C 698.70397 867.9424 695.64726 867.21879 691.90625 867.21875 L 683.5 867.21875 L 683.5 895.65625 C 683.49997 898.34005 683.86178 900.23643 684.59375 901.375 C 685.40699 902.43226 686.62343 903.01243 688.25 903.09375 C 689.87651 903.17508 691.94757 903.27485 694.46875 903.4375 L 694.46875 907 L 660.4375 907 L 660.4375 903.4375 C 662.95863 903.27485 665.0297 903.17508 666.65625 903.09375 C 668.28278 903.01243 669.48679 902.43226 670.21875 901.375 C 671.03201 900.23643 671.43748 898.34005 671.4375 895.65625 L 671.4375 833.90625 C 671.43748 831.22253 671.03201 829.36983 670.21875 828.3125 C 669.48679 827.174 668.28278 826.55016 666.65625 826.46875 C 665.0297 826.3875 662.95863 826.28773 660.4375 826.125 L 660.4375 822.5625 z M 145.84375 826.78125 C 145.33546 826.78125 144.84111 826.80313 144.3125 826.84375 C 143.25521 826.92516 142.22589 827.05618 141.25 827.21875 C 140.35537 827.38148 139.58809 827.83063 138.9375 828.5625 C 138.36818 829.21319 138.09372 830.12392 138.09375 831.34375 L 138.09375 863.3125 C 138.09372 865.02041 138.54287 866.28052 139.4375 867.09375 C 140.4134 867.82573 141.54249 868.14387 142.84375 868.0625 C 144.22628 867.98121 145.62983 867.98121 147.09375 868.0625 C 153.51855 868.06254 158.54656 866.25351 162.125 862.59375 C 165.78467 858.93408 167.59369 853.84997 167.59375 847.34375 C 167.59369 840.91897 165.82834 835.92221 162.25 832.34375 C 158.75289 828.68411 153.76855 826.84383 147.34375 826.84375 C 146.85577 826.80313 146.35204 826.78125 145.84375 826.78125 z M 690.09375 826.84375 C 689.36177 826.84383 688.69426 826.8875 688.125 826.96875 C 687.55568 826.96883 687.05043 827.05618 686.5625 827.21875 C 686.07451 827.38148 685.62536 827.61227 685.21875 827.9375 C 684.81209 828.18156 684.49395 828.49969 684.25 828.90625 C 684.00599 829.31296 683.78763 829.89313 683.625 830.625 C 683.54365 831.27569 683.49997 832.04298 683.5 832.9375 L 683.5 862.9375 L 693.15625 862.9375 C 705.51792 862.93754 711.68744 856.8117 711.6875 844.53125 C 711.68744 838.59444 709.97819 834.1466 706.5625 831.21875 C 703.14671 828.29105 698.42442 826.84383 692.40625 826.84375 C 691.59294 826.84383 690.82566 826.84383 690.09375 826.84375 z M 207 845.75 L 208.46875 855.5 C 209.36332 854.60545 210.49241 853.60738 211.875 852.46875 C 213.25753 851.33023 214.60499 850.25723 215.90625 849.28125 C 217.20745 848.30538 218.64225 847.49443 220.1875 846.84375 C 221.73268 846.11187 223.1799 845.75006 224.5625 845.75 C 226.43298 845.75006 227.9988 846.28656 229.21875 847.34375 C 230.43861 848.40106 231.0312 849.84828 231.03125 851.71875 C 231.0312 853.34535 230.52596 854.91116 229.46875 856.375 C 228.41145 857.83894 227.064 858.56255 225.4375 858.5625 C 224.62419 858.56255 223.10204 858.02605 220.90625 856.96875 C 218.71038 855.83022 216.90136 855.25005 215.4375 855.25 C 212.99766 855.25005 211.20105 856.64118 210.0625 859.40625 C 209.00522 862.17142 208.46873 864.99734 208.46875 867.84375 L 208.46875 896.375 C 208.46873 898.89615 208.96155 900.69275 209.9375 901.75 C 210.9134 902.80726 212.26085 903.34375 213.96875 903.34375 C 215.75792 903.26243 217.78531 903.27485 220.0625 903.4375 L 220.0625 907 L 187.84375 907 L 187.84375 903.4375 C 189.55161 903.35618 190.98641 903.30008 192.125 903.21875 C 193.26357 903.13743 194.20555 902.87539 194.9375 902.46875 C 195.66943 902.06212 196.20593 901.42585 196.53125 900.53125 C 196.85655 899.55533 196.99999 898.16421 197 896.375 L 197 857.9375 C 196.99999 855.90437 196.68185 854.50082 196.03125 853.6875 C 195.38062 852.87428 194.39497 852.42513 193.09375 852.34375 C 191.87384 852.26248 190.33927 852.08779 188.46875 851.84375 L 188.46875 848.8125 L 207 845.75 z M 265.4375 845.75 C 273.24486 845.75006 279.31461 847.90847 283.625 852.21875 C 287.93528 856.52914 290.09369 862.55522 290.09375 870.28125 C 290.09369 873.37171 288.47178 874.90628 285.21875 874.90625 L 250.0625 874.90625 L 250.0625 876.25 C 250.06248 893.57269 256.04489 902.21875 268 902.21875 C 275.72603 902.21875 281.62109 897.93319 285.6875 889.3125 L 289.34375 891.25 C 285.43999 902.71713 277.34285 908.46875 265.0625 908.46875 C 246.60123 908.46875 237.37499 898.16952 237.375 877.59375 C 237.37499 868.15984 239.75177 860.51185 244.46875 854.65625 C 249.18571 848.71943 256.16618 845.75006 265.4375 845.75 z M 317.53125 845.75 L 318.625 855.03125 C 322.61 852.10353 326.24688 849.8141 329.5 848.1875 C 332.75305 846.56102 336.22766 845.75006 339.96875 845.75 C 347.53212 845.75006 352.92193 848.89412 356.09375 855.15625 C 356.90696 854.66834 358.21074 853.81371 360 852.59375 C 361.87046 851.29257 363.23033 850.39427 364.125 849.90625 C 365.10085 849.33702 366.36096 848.6695 367.90625 847.9375 C 369.53272 847.12429 371.09853 846.57537 372.5625 846.25 C 374.10764 845.92475 375.77322 845.75006 377.5625 845.75 C 383.49929 845.75006 388.00323 847.50299 391.09375 851 C 394.18408 854.41579 395.71865 859.13809 395.71875 865.15625 L 395.71875 896.375 C 395.71865 898.16421 395.89334 899.55533 396.21875 900.53125 C 396.54396 901.42585 397.08045 902.06212 397.8125 902.46875 C 398.54434 902.87539 399.45506 903.13743 400.59375 903.21875 C 401.73222 903.30008 403.16702 903.35618 404.875 903.4375 L 404.875 907 L 375.125 907 L 375.125 903.4375 C 376.83279 903.35618 378.23634 903.30008 379.375 903.21875 C 380.59482 903.13743 381.5368 902.87539 382.1875 902.46875 C 382.91936 902.06212 383.45585 901.42585 383.78125 900.53125 C 384.10647 899.55533 384.24991 898.16421 384.25 896.375 L 384.25 867.59375 C 384.24991 857.42791 380.15145 852.3438 371.9375 852.34375 C 367.22045 852.3438 363.57115 853.74735 360.96875 856.59375 C 358.44754 859.35892 357.18744 863.12682 357.1875 867.84375 L 357.1875 896.375 C 357.18744 898.16421 357.33088 899.55533 357.65625 900.53125 C 357.98149 901.42585 358.51799 902.06212 359.25 902.46875 C 359.98188 902.87539 360.92385 903.13743 362.0625 903.21875 C 363.20101 903.30008 364.63581 903.35618 366.34375 903.4375 L 366.34375 907 L 336.5625 907 L 336.5625 903.4375 C 338.27033 903.35618 339.70512 903.30008 340.84375 903.21875 C 342.06361 903.13743 342.97433 902.87539 343.625 902.46875 C 344.35689 902.06212 344.89339 901.42585 345.21875 900.53125 C 345.54401 899.55533 345.7187 898.16421 345.71875 896.375 L 345.71875 867.59375 C 345.7187 862.71417 344.90774 858.97752 343.28125 856.375 C 341.65466 853.69126 338.55428 852.3438 334 852.34375 C 330.99086 852.3438 328.15251 853.19843 325.46875 854.90625 C 322.86625 856.53284 320.89496 858.69125 319.59375 861.375 C 318.94311 862.75761 318.62498 864.91602 318.625 867.84375 L 318.625 896.375 C 318.62498 898.16421 318.79967 899.55533 319.125 900.53125 C 319.45028 901.42585 319.98678 902.06212 320.71875 902.46875 C 321.45067 902.87539 322.36139 903.13743 323.5 903.21875 C 324.63855 903.30008 326.07335 903.35618 327.78125 903.4375 L 327.78125 907 L 298 907 L 298 903.4375 C 299.70786 903.35618 301.14266 903.30008 302.28125 903.21875 C 303.50115 903.13743 304.44312 902.87539 305.09375 902.46875 C 305.82568 902.06212 306.36218 901.42585 306.6875 900.53125 C 307.0128 899.55533 307.15624 898.16421 307.15625 896.375 L 307.15625 857.9375 C 307.15624 855.90437 306.8381 854.50082 306.1875 853.6875 C 305.53687 852.87428 304.55122 852.42513 303.25 852.34375 C 302.03009 852.26248 300.49552 852.08779 298.625 851.84375 L 298.625 848.8125 L 317.53125 845.75 z M 430.375 845.75 L 431.21875 846.46875 L 431.21875 896.375 C 431.21873 898.16421 431.39342 899.55533 431.71875 900.53125 C 432.04403 901.42585 432.58053 902.06212 433.3125 902.46875 C 434.04442 902.87539 434.95514 903.13743 436.09375 903.21875 C 437.2323 903.30008 438.6671 903.35618 440.375 903.4375 L 440.375 907 L 410.625 907 L 410.625 903.4375 C 412.33286 903.35618 413.73641 903.30008 414.875 903.21875 C 416.0949 903.13743 417.03687 902.91906 417.6875 902.59375 C 418.41943 902.18712 418.95593 901.55085 419.28125 900.65625 C 419.60655 899.68033 419.74999 898.24553 419.75 896.375 L 419.75 857.9375 C 419.74999 855.90437 419.43185 854.50082 418.78125 853.6875 C 418.13062 852.87428 417.14497 852.42513 415.84375 852.34375 C 414.62384 852.26248 413.08927 852.08779 411.21875 851.84375 L 411.21875 848.8125 L 430.375 845.75 z M 464.53125 845.75 L 465.375 846.46875 L 465.375 887.96875 C 465.37498 892.11645 466.4043 895.49129 468.4375 898.09375 C 470.55198 900.6149 473.65236 901.87501 477.71875 901.875 C 480.89047 901.87501 483.85984 901.06405 486.625 899.4375 C 489.39008 897.72964 491.41747 895.48388 492.71875 892.71875 C 493.36932 891.3362 493.68745 888.90333 493.6875 885.40625 L 493.6875 857.9375 C 493.68745 855.90437 493.36932 854.50082 492.71875 853.6875 C 492.06808 852.87428 491.08244 852.42513 489.78125 852.34375 C 488.5613 852.26248 487.02673 852.08779 485.15625 851.84375 L 485.15625 848.8125 L 504.3125 845.75 L 505.15625 846.46875 L 505.15625 896.375 C 505.15619 898.16421 505.33088 899.55533 505.65625 900.53125 C 505.98149 901.42585 506.48674 902.06212 507.21875 902.46875 C 507.95063 902.87539 508.8926 903.13743 510.03125 903.21875 C 511.25109 903.30008 512.68589 903.35618 514.3125 903.4375 L 514.3125 907 L 494.78125 907 L 493.5625 899.65625 C 492.34254 900.22555 490.14046 901.47323 486.96875 903.34375 C 483.87828 905.21428 481.21462 906.48681 478.9375 907.21875 C 476.74163 908.03202 474.17774 908.46875 471.25 908.46875 C 465.55708 908.46875 461.24026 906.85926 458.3125 903.6875 C 455.38471 900.51575 453.90624 896.01181 453.90625 890.15625 L 453.90625 857.9375 C 453.90624 855.90437 453.58811 854.50082 452.9375 853.6875 C 452.28687 852.87428 451.30123 852.42513 450 852.34375 C 448.78009 852.26248 447.24552 852.08779 445.375 851.84375 L 445.375 848.8125 L 464.53125 845.75 z M 539.5625 845.75 L 540.65625 855.03125 C 544.64125 852.10353 548.24688 849.8141 551.5 848.1875 C 554.75305 846.56102 558.25891 845.75006 562 845.75 C 569.56337 845.75006 574.92193 848.89412 578.09375 855.15625 C 578.90696 854.66834 580.21074 853.81371 582 852.59375 C 583.87046 851.29257 585.26158 850.39427 586.15625 849.90625 C 587.1321 849.33702 588.39221 848.6695 589.9375 847.9375 C 591.56397 847.12429 593.09853 846.57537 594.5625 846.25 C 596.10764 845.92475 597.77322 845.75006 599.5625 845.75 C 605.49929 845.75006 610.03448 847.50299 613.125 851 C 616.21533 854.41579 617.7499 859.13809 617.75 865.15625 L 617.75 896.375 C 617.7499 898.16421 617.92459 899.55533 618.25 900.53125 C 618.57521 901.42585 619.08045 902.06212 619.8125 902.46875 C 620.54434 902.87539 621.48631 903.13743 622.625 903.21875 C 623.76347 903.30008 625.19827 903.35618 626.90625 903.4375 L 626.90625 907 L 597.125 907 L 597.125 903.4375 C 598.83279 903.35618 600.26759 903.30008 601.40625 903.21875 C 602.62607 903.13743 603.56805 902.87539 604.21875 902.46875 C 604.95061 902.06212 605.45585 901.42585 605.78125 900.53125 C 606.10647 899.55533 606.28116 898.16421 606.28125 896.375 L 606.28125 867.59375 C 606.28116 857.42791 602.1827 852.3438 593.96875 852.34375 C 589.2517 852.3438 585.57115 853.74735 582.96875 856.59375 C 580.44754 859.35892 579.18744 863.12682 579.1875 867.84375 L 579.1875 896.375 C 579.18744 898.16421 579.36213 899.55533 579.6875 900.53125 C 580.01274 901.42585 580.54924 902.06212 581.28125 902.46875 C 582.01313 902.87539 582.9551 903.13743 584.09375 903.21875 C 585.23226 903.30008 586.63581 903.35618 588.34375 903.4375 L 588.34375 907 L 558.59375 907 L 558.59375 903.4375 C 560.30158 903.35618 561.70512 903.30008 562.84375 903.21875 C 564.06361 903.13743 565.00558 902.87539 565.65625 902.46875 C 566.38814 902.06212 566.92464 901.42585 567.25 900.53125 C 567.57526 899.55533 567.7187 898.16421 567.71875 896.375 L 567.71875 867.59375 C 567.7187 862.71417 566.90774 858.97752 565.28125 856.375 C 563.65466 853.69126 560.58553 852.3438 556.03125 852.34375 C 553.02211 852.3438 550.15251 853.19843 547.46875 854.90625 C 544.86625 856.53284 542.92621 858.69125 541.625 861.375 C 540.97436 862.75761 540.65623 864.91602 540.65625 867.84375 L 540.65625 896.375 C 540.65623 898.16421 540.79967 899.55533 541.125 900.53125 C 541.45028 901.42585 541.98678 902.06212 542.71875 902.46875 C 543.45067 902.87539 544.39264 903.13743 545.53125 903.21875 C 546.6698 903.30008 548.1046 903.35618 549.8125 903.4375 L 549.8125 907 L 520.03125 907 L 520.03125 903.4375 C 521.73911 903.35618 523.17391 903.30008 524.3125 903.21875 C 525.5324 903.13743 526.47437 902.87539 527.125 902.46875 C 527.85693 902.06212 528.36218 901.42585 528.6875 900.53125 C 529.0128 899.55533 529.18749 898.16421 529.1875 896.375 L 529.1875 857.9375 C 529.18749 855.90437 528.86935 854.50082 528.21875 853.6875 C 527.56812 852.87428 526.58247 852.42513 525.28125 852.34375 C 524.06134 852.26248 522.52677 852.08779 520.65625 851.84375 L 520.65625 848.8125 L 539.5625 845.75 z M 758.40625 845.75 L 759.25 846.46875 L 759.25 896.375 C 759.24998 898.16421 759.42467 899.55533 759.75 900.53125 C 760.07528 901.42585 760.61178 902.06212 761.34375 902.46875 C 762.07567 902.87539 763.01764 903.13743 764.15625 903.21875 C 765.2948 903.30008 766.69835 903.35618 768.40625 903.4375 L 768.40625 907 L 738.65625 907 L 738.65625 903.4375 C 740.36411 903.35618 741.76766 903.30008 742.90625 903.21875 C 744.12615 903.13743 745.06812 902.91906 745.71875 902.59375 C 746.45068 902.18712 746.98718 901.55085 747.3125 900.65625 C 747.6378 899.68033 747.78124 898.24553 747.78125 896.375 L 747.78125 857.9375 C 747.78124 855.90437 747.4631 854.50082 746.8125 853.6875 C 746.16187 852.87428 745.17622 852.42513 743.875 852.34375 C 742.65509 852.26248 741.12052 852.08779 739.25 851.84375 L 739.25 848.8125 L 758.40625 845.75 z M 877.21875 845.75 C 885.02611 845.75006 891.09586 847.90847 895.40625 852.21875 C 899.71653 856.52914 901.87494 862.55522 901.875 870.28125 C 901.87494 873.37171 900.25303 874.90628 897 874.90625 L 861.84375 874.90625 L 861.84375 876.25 C 861.84373 893.57269 867.82614 902.21875 879.78125 902.21875 C 887.50728 902.21875 893.40234 897.93319 897.46875 889.3125 L 901.125 891.25 C 897.22124 902.71713 889.1241 908.46875 876.84375 908.46875 C 858.38248 908.46875 849.15624 898.16952 849.15625 877.59375 C 849.15624 868.15984 851.53302 860.51185 856.25 854.65625 C 860.96696 848.71943 867.94743 845.75006 877.21875 845.75 z M 934.9375 845.75 C 941.68762 845.75006 946.91516 847.14119 950.65625 849.90625 L 950.65625 864.15625 L 947.125 864.15625 C 946.637 860.00861 945.2022 856.63377 942.84375 854.03125 C 940.56656 851.34751 937.45375 850.03131 933.46875 850.03125 C 930.37829 850.03131 927.77073 850.92961 925.65625 852.71875 C 923.54173 854.42667 922.46873 856.81587 922.46875 859.90625 C 922.46873 862.18345 923.26727 864.07983 924.8125 865.625 C 926.43902 867.17026 928.42274 868.37427 930.78125 869.1875 C 933.22104 869.91948 935.8286 870.83021 938.59375 871.96875 C 941.35884 873.02604 943.92273 874.18638 946.28125 875.40625 C 948.72102 876.62619 950.70474 878.52256 952.25 881.125 C 953.87649 883.64616 954.68745 886.74655 954.6875 890.40625 C 954.68745 896.34314 952.4417 900.84708 947.96875 903.9375 C 943.49572 906.9466 938.13716 908.46875 931.875 908.46875 C 923.66094 908.46875 917.31673 906.49745 912.84375 902.59375 L 911.625 886.625 L 915.15625 886.625 C 917.92136 898.33612 923.86009 904.1875 932.96875 904.1875 C 936.14048 904.1875 938.83538 903.2892 941.03125 901.5 C 943.22705 899.62948 944.31246 897.15294 944.3125 894.0625 C 944.31246 890.89076 943.22705 888.32687 941.03125 886.375 C 938.91671 884.42317 936.30915 882.93228 933.21875 881.875 C 930.12829 880.81777 926.98424 879.70111 923.8125 878.5625 C 920.72205 877.34262 918.10207 875.50235 915.90625 873.0625 C 913.79174 870.5414 912.71874 867.38491 912.71875 863.5625 C 912.71874 857.54434 914.83348 853.08408 919.0625 850.15625 C 923.37282 847.22853 928.67529 845.75006 934.9375 845.75 z M 263.8125 850.03125 C 259.38078 850.27432 256.00605 852.3616 253.71875 856.25 C 251.36024 860.39773 250.18748 865.07636 250.1875 870.28125 L 273.25 870.28125 C 276.01508 870.28129 277.4062 868.97751 277.40625 866.375 C 277.4062 861.7394 276.37688 857.87173 274.34375 854.78125 C 272.31053 851.60955 269.11038 850.03131 264.71875 850.03125 C 264.41377 850.03125 264.10795 850.01505 263.8125 850.03125 z M 875.59375 850.03125 C 871.16203 850.27432 867.7873 852.3616 865.5 856.25 C 863.14149 860.39773 861.96873 865.07636 861.96875 870.28125 L 885.03125 870.28125 C 887.79633 870.28129 889.18745 868.97751 889.1875 866.375 C 889.18745 861.7394 888.15813 857.87173 886.125 854.78125 C 884.09178 851.60955 880.89163 850.03131 876.5 850.03125 C 876.19502 850.03125 875.8892 850.01505 875.59375 850.03125 z M 335.40625 948.5 L 338.28125 948.5 L 338.28125 961.03125 L 351.125 961.03125 L 351.125 965 L 338.28125 965 L 338.28125 995.84375 C 338.28123 1002.4752 340.46699 1005.7813 344.84375 1005.7812 C 347.36366 1005.7813 349.71785 1005.3621 351.90625 1004.5 L 352.71875 1006.5938 C 348.07673 1009.5116 343.81495 1010.9687 339.96875 1010.9688 C 336.45408 1010.9687 333.7356 1009.9582 331.8125 1007.9688 C 329.88938 1005.9793 328.93749 1003.206 328.9375 999.625 L 328.9375 965 L 321.78125 965 L 321.78125 961.03125 L 329.34375 961.03125 L 335.40625 948.5 z M 553.53125 958.84375 L 554.34375 959.71875 L 552.34375 966 L 544.5 967.1875 C 546.48938 969.24328 547.4687 972.35349 547.46875 976.53125 C 547.4687 981.90273 545.50624 985.96864 541.59375 988.6875 C 537.74749 991.4064 533.01168 992.75002 527.375 992.75 C 525.65081 992.75002 523.97033 992.66771 522.3125 992.46875 C 518.93046 993.59611 517.24998 995.22171 517.25 997.34375 C 517.24998 998.9353 518.08831 1000.0556 519.8125 1000.7188 C 521.60296 1001.3156 523.78872 1001.5663 526.375 1001.5 C 529.02754 1001.4337 531.88702 1001.5473 534.9375 1001.8125 C 537.98792 1002.0778 540.81996 1002.4969 543.40625 1003.0938 C 546.05877 1003.6906 548.24453 1005.1203 549.96875 1007.375 C 551.75918 1009.5634 552.6562 1012.4777 552.65625 1016.125 C 552.6562 1019.3081 551.90018 1022.1127 550.375 1024.5 C 548.84973 1026.8873 546.80114 1028.7088 544.28125 1029.9688 C 541.76127 1031.295 539.12891 1032.2469 536.34375 1032.8438 C 533.62484 1033.5069 530.76536 1033.8437 527.78125 1033.8438 C 525.26129 1033.8437 522.79354 1033.6204 520.40625 1033.1562 C 518.08524 1032.692 515.81717 1031.9048 513.5625 1030.8438 C 511.37412 1029.7827 509.60753 1028.2707 508.28125 1026.2812 C 506.95496 1024.3581 506.28125 1022.0314 506.28125 1019.3125 C 506.28125 1016.3284 507.31925 1014.0016 509.375 1012.3438 C 511.49704 1010.7522 514.30165 1009.436 517.75 1008.375 L 517.75 1008.1875 C 515.62793 1007.9886 513.63804 1007.1464 511.78125 1005.6875 C 509.92444 1004.1623 508.96874 1002.3957 508.96875 1000.4062 C 508.96874 996.8253 512.02408 993.88351 518.125 991.5625 L 518.125 991.375 C 514.74296 990.51293 512.1106 988.7189 510.1875 986 C 508.3307 983.28114 507.37499 980.11225 507.375 976.53125 C 507.37499 971.15984 509.42358 967.0703 513.46875 964.21875 C 517.5139 961.30097 522.33202 959.8438 527.96875 959.84375 C 533.40648 959.8438 537.6957 960.85056 540.8125 962.90625 L 553.53125 958.84375 z M 194.75 959.84375 C 196.87202 959.8438 199.17134 960.12197 201.625 960.71875 C 204.1449 961.24931 206.49909 962.28732 208.6875 963.8125 C 210.94214 965.33777 212.06245 967.21411 212.0625 969.46875 C 212.06245 970.99402 211.47486 972.22789 210.28125 973.15625 C 209.08755 974.08468 207.71268 974.56254 206.1875 974.5625 C 205.19275 974.56254 204.29573 974.00238 203.5 972.875 C 202.77051 971.68138 202.15548 970.39264 201.625 969 C 201.09445 967.54113 200.11131 966.22113 198.71875 965.09375 C 197.39243 963.90014 195.71196 963.31255 193.65625 963.3125 C 191.13629 963.31255 188.97796 964.0137 187.1875 965.40625 C 185.46331 966.73258 184.17457 968.52661 183.3125 970.78125 C 182.4504 972.96966 181.83537 975.15542 181.4375 977.34375 C 181.10591 979.53215 180.93748 981.77278 180.9375 984.09375 C 180.93748 986.68003 181.13335 989.17521 181.53125 991.5625 C 181.99543 993.88351 182.72402 996.18283 183.71875 998.4375 C 184.77976 1000.6922 186.2918 1002.4862 188.28125 1003.8125 C 190.33697 1005.1388 192.77728 1005.7813 195.5625 1005.7812 C 199.14343 1005.7813 201.9991 1004.9117 204.1875 1003.1875 C 206.44214 1001.397 208.34973 998.76466 209.875 995.25 L 212.75 996.625 C 211.62261 1001.0017 209.29586 1004.5075 205.78125 1007.0938 C 202.26656 1009.68 198.2319 1010.9687 193.65625 1010.9688 C 185.89747 1010.9687 180.09621 1008.783 176.25 1004.4062 C 172.47008 999.96321 170.59375 993.79766 170.59375 985.90625 C 170.59375 977.94858 172.63851 971.6146 176.75 966.90625 C 180.86146 962.19799 186.85859 959.8438 194.75 959.84375 z M 233.25 959.84375 L 233.9375 960.4375 L 233.9375 994.25 C 233.93748 997.63204 234.77963 1000.378 236.4375 1002.5 C 238.16165 1004.5557 240.68426 1005.5938 244 1005.5938 C 246.58622 1005.5938 248.99528 1004.92 251.25 1003.5938 C 253.50464 1002.2012 255.15768 1000.3797 256.21875 998.125 C 256.74922 996.99767 257.03121 995.00778 257.03125 992.15625 L 257.03125 969.78125 C 257.03121 968.12344 256.74922 966.97568 256.21875 966.3125 C 255.6882 965.6494 254.90474 965.28511 253.84375 965.21875 C 252.849 965.15248 251.58769 965.01149 250.0625 964.8125 L 250.0625 962.3125 L 265.6875 959.84375 L 266.375 960.4375 L 266.375 1001.125 C 266.37495 1002.5839 266.51594 1003.7042 266.78125 1004.5 C 267.04645 1005.2295 267.46562 1005.7622 268.0625 1006.0938 C 268.65927 1006.4253 269.4153 1006.6212 270.34375 1006.6875 C 271.33841 1006.7538 272.51741 1006.8087 273.84375 1006.875 L 273.84375 1009.7812 L 257.90625 1009.7812 L 256.9375 1003.8125 C 255.94275 1004.2767 254.14871 1005.256 251.5625 1006.7812 C 249.04253 1008.3065 246.85677 1009.3719 245 1009.9688 C 243.20949 1010.6319 241.10603 1010.9687 238.71875 1010.9688 C 234.07674 1010.9687 230.5748 1009.68 228.1875 1007.0938 C 225.80018 1004.5075 224.59374 1000.8059 224.59375 996.03125 L 224.59375 969.78125 C 224.59374 968.12344 224.343 966.97568 223.8125 966.3125 C 223.28198 965.6494 222.46727 965.28511 221.40625 965.21875 C 220.41153 965.15248 219.15022 965.01149 217.625 964.8125 L 217.625 962.3125 L 233.25 959.84375 z M 299 959.84375 C 304.50405 959.8438 308.79326 960.96412 311.84375 963.21875 L 311.84375 974.84375 L 308.9375 974.84375 C 308.53958 971.46176 307.39183 968.71585 305.46875 966.59375 C 303.61192 964.40543 301.06187 963.31255 297.8125 963.3125 C 295.29254 963.31255 293.16165 964.04113 291.4375 965.5 C 289.71332 966.89264 288.84374 968.8551 288.84375 971.375 C 288.84374 973.23183 289.49002 974.80257 290.75 976.0625 C 292.07627 977.3225 293.70187 978.27439 295.625 978.9375 C 297.6144 979.53436 299.71404 980.29038 301.96875 981.21875 C 304.2234 982.08086 306.32686 983.00531 308.25 984 C 310.23939 984.99474 311.86499 986.56547 313.125 988.6875 C 314.45124 990.74326 315.12496 993.26588 315.125 996.25 C 315.12496 1001.0909 313.30349 1004.7613 309.65625 1007.2812 C 306.00894 1009.7349 301.60617 1010.9687 296.5 1010.9688 C 289.80225 1010.9687 284.64727 1009.3706 281 1006.1875 L 280 993.15625 L 282.875 993.15625 C 285.12967 1002.7055 289.97905 1007.4688 297.40625 1007.4688 C 299.99248 1007.4688 302.17824 1006.7402 303.96875 1005.2812 C 305.7592 1003.756 306.65622 1001.7387 306.65625 999.21875 C 306.65622 996.63251 305.7592 994.56031 303.96875 992.96875 C 302.24455 991.37723 300.11366 990.14335 297.59375 989.28125 C 295.07379 988.41919 292.52374 987.52217 289.9375 986.59375 C 287.41755 985.59906 285.25922 984.11445 283.46875 982.125 C 281.74457 980.06929 280.90624 977.46055 280.90625 974.34375 C 280.90624 969.43654 282.61415 965.7936 286.0625 963.40625 C 289.57714 961.01899 293.89379 959.8438 299 959.84375 z M 381.5625 959.84375 C 389.58648 959.8438 395.55617 962.08443 399.46875 966.59375 C 403.44755 971.03684 405.43745 977.31595 405.4375 985.40625 C 405.43745 993.4966 403.44755 999.80314 399.46875 1004.3125 C 395.55617 1008.7556 389.58648 1010.9687 381.5625 1010.9688 C 373.60478 1010.9687 367.63509 1008.6969 363.65625 1004.1875 C 359.74371 999.67814 357.78125 993.43028 357.78125 985.40625 C 357.78125 977.38226 359.74371 971.10315 363.65625 966.59375 C 367.63509 962.08443 373.60478 959.8438 381.5625 959.84375 z M 429.40625 959.84375 L 430.3125 967.40625 C 433.56187 965.01898 436.50366 963.13883 439.15625 961.8125 C 441.80879 960.48627 444.66826 959.8438 447.71875 959.84375 C 453.88593 959.8438 458.25745 962.39385 460.84375 967.5 C 461.50684 967.10216 462.57229 966.40101 464.03125 965.40625 C 465.55642 964.34527 466.67674 963.61668 467.40625 963.21875 C 468.20196 962.7546 469.23997 962.22188 470.5 961.625 C 471.82622 960.96191 473.08753 960.48406 474.28125 960.21875 C 475.54115 959.95354 476.88477 959.8438 478.34375 959.84375 C 483.18461 959.8438 486.85498 961.27354 489.375 964.125 C 491.89486 966.91024 493.15617 970.74904 493.15625 975.65625 L 493.15625 1001.125 C 493.15617 1002.5839 493.29716 1003.7042 493.5625 1004.5 C 493.82767 1005.2295 494.24684 1005.7622 494.84375 1006.0938 C 495.44049 1006.4253 496.22777 1006.6212 497.15625 1006.6875 C 498.08456 1006.7538 499.23231 1006.8087 500.625 1006.875 L 500.625 1009.7812 L 476.34375 1009.7812 L 476.34375 1006.875 C 477.73628 1006.8087 478.91528 1006.7538 479.84375 1006.6875 C 480.83839 1006.6212 481.59442 1006.4253 482.125 1006.0938 C 482.72176 1005.7622 483.14092 1005.2295 483.40625 1004.5 C 483.67143 1003.7042 483.81243 1002.5839 483.8125 1001.125 L 483.8125 977.625 C 483.81243 969.33577 480.47891 965.21879 473.78125 965.21875 C 469.93497 965.21879 466.9345 966.36655 464.8125 968.6875 C 462.75671 970.94222 461.7187 973.99756 461.71875 977.84375 L 461.71875 1001.125 C 461.7187 1002.5839 461.85969 1003.7042 462.125 1004.5 C 462.3902 1005.2295 462.84062 1005.7622 463.4375 1006.0938 C 464.03427 1006.4253 464.7903 1006.6212 465.71875 1006.6875 C 466.64709 1006.7538 467.79484 1006.8087 469.1875 1006.875 L 469.1875 1009.7812 L 444.9375 1009.7812 L 444.9375 1006.875 C 446.33006 1006.8087 447.47781 1006.7538 448.40625 1006.6875 C 449.40092 1006.6212 450.15695 1006.4253 450.6875 1006.0938 C 451.28429 1005.7622 451.70345 1005.2295 451.96875 1004.5 C 452.23396 1003.7042 452.37496 1002.5839 452.375 1001.125 L 452.375 977.625 C 452.37496 973.64618 451.73249 970.62209 450.40625 968.5 C 449.07993 966.31168 446.55731 965.21879 442.84375 965.21875 C 440.39009 965.21879 438.06334 965.8887 435.875 967.28125 C 433.75292 968.60758 432.15476 970.37417 431.09375 972.5625 C 430.56322 973.68988 430.31248 975.45647 430.3125 977.84375 L 430.3125 1001.125 C 430.31248 1002.5839 430.42222 1003.7042 430.6875 1004.5 C 430.95274 1005.2295 431.40315 1005.7622 432 1006.0938 C 432.59681 1006.4253 433.35283 1006.6212 434.28125 1006.6875 C 435.20962 1006.7538 436.35738 1006.8087 437.75 1006.875 L 437.75 1009.7812 L 413.5 1009.7812 L 413.5 1006.875 C 414.89259 1006.8087 416.04035 1006.7538 416.96875 1006.6875 C 417.96346 1006.6212 418.71948 1006.4253 419.25 1006.0938 C 419.84682 1005.7622 420.29723 1005.2295 420.5625 1004.5 C 420.82775 1003.7042 420.93749 1002.5839 420.9375 1001.125 L 420.9375 969.78125 C 420.93749 968.12344 420.68675 966.97568 420.15625 966.3125 C 419.62573 965.6494 418.84227 965.28511 417.78125 965.21875 C 416.78653 965.15248 415.52522 965.01149 414 964.8125 L 414 962.3125 L 429.40625 959.84375 z M 572.03125 959.84375 L 572.75 960.4375 L 572.75 994.25 C 572.74998 997.63204 573.56088 1000.378 575.21875 1002.5 C 576.9429 1004.5557 579.46551 1005.5938 582.78125 1005.5938 C 585.36747 1005.5938 587.80778 1004.92 590.0625 1003.5938 C 592.31714 1002.2012 593.97018 1000.3797 595.03125 998.125 C 595.56172 996.99767 595.81246 995.00778 595.8125 992.15625 L 595.8125 969.78125 C 595.81246 968.12344 595.56172 966.97568 595.03125 966.3125 C 594.5007 965.6494 593.68599 965.28511 592.625 965.21875 C 591.63025 965.15248 590.36894 965.01149 588.84375 964.8125 L 588.84375 962.3125 L 604.46875 959.84375 L 605.15625 960.4375 L 605.15625 1001.125 C 605.1562 1002.5839 605.29719 1003.7042 605.5625 1004.5 C 605.8277 1005.2295 606.27812 1005.7622 606.875 1006.0938 C 607.47177 1006.4253 608.2278 1006.6212 609.15625 1006.6875 C 610.15091 1006.7538 611.29866 1006.8087 612.625 1006.875 L 612.625 1009.7812 L 596.71875 1009.7812 L 595.71875 1003.8125 C 594.724 1004.2767 592.92996 1005.256 590.34375 1006.7812 C 587.82378 1008.3065 585.63802 1009.3719 583.78125 1009.9688 C 581.99074 1010.6319 579.91853 1010.9687 577.53125 1010.9688 C 572.88924 1010.9687 569.35605 1009.68 566.96875 1007.0938 C 564.58143 1004.5075 563.40624 1000.8059 563.40625 996.03125 L 563.40625 969.78125 C 563.40624 968.12344 563.12425 966.97568 562.59375 966.3125 C 562.06323 965.6494 561.27977 965.28511 560.21875 965.21875 C 559.22403 965.15248 557.96272 965.01149 556.4375 964.8125 L 556.4375 962.3125 L 572.03125 959.84375 z M 632.625 959.84375 L 634 967.40625 C 635.39258 966.47789 636.82232 965.52219 638.28125 964.59375 C 639.74014 963.6654 641.14244 962.88194 642.46875 962.21875 C 643.86132 961.48934 645.37336 960.92918 647.03125 960.53125 C 648.68907 960.0671 650.40079 959.8438 652.125 959.84375 C 656.89958 959.8438 660.51508 961.27354 662.96875 964.125 C 665.48864 966.97655 666.74995 970.81535 666.75 975.65625 L 666.75 1001.125 C 666.74995 1002.5839 666.85969 1003.7042 667.125 1004.5 C 667.3902 1005.2295 667.84062 1005.7622 668.4375 1006.0938 C 669.03427 1006.4253 669.7903 1006.6212 670.71875 1006.6875 C 671.64709 1006.7538 672.79484 1006.8087 674.1875 1006.875 L 674.1875 1009.7812 L 649.9375 1009.7812 L 649.9375 1006.875 C 651.33006 1006.8087 652.47781 1006.7538 653.40625 1006.6875 C 654.40092 1006.6212 655.15695 1006.4253 655.6875 1006.0938 C 656.28429 1005.7622 656.7347 1005.2295 657 1004.5 C 657.26521 1003.7042 657.40621 1002.5839 657.40625 1001.125 L 657.40625 977.625 C 657.40621 969.33577 653.90045 965.21879 646.9375 965.21875 C 644.55016 965.21879 642.2234 965.86126 639.96875 967.1875 C 637.78036 968.51383 636.15476 970.25299 635.09375 972.375 C 634.43059 973.70132 634.12498 975.52279 634.125 977.84375 L 634.125 1001.125 C 634.12498 1002.5839 634.23472 1003.7042 634.5 1004.5 C 634.76524 1005.2295 635.21565 1005.7622 635.8125 1006.0938 C 636.40931 1006.4253 637.16533 1006.6212 638.09375 1006.6875 C 639.02212 1006.7538 640.16988 1006.8087 641.5625 1006.875 L 641.5625 1009.7812 L 617.3125 1009.7812 L 617.3125 1006.875 C 618.70509 1006.8087 619.85285 1006.7538 620.78125 1006.6875 C 621.77596 1006.6212 622.53198 1006.4253 623.0625 1006.0938 C 623.65932 1005.7622 624.10973 1005.2295 624.375 1004.5 C 624.64025 1003.7042 624.74999 1002.5839 624.75 1001.125 L 624.75 969.78125 C 624.74999 968.12344 624.49925 966.97568 623.96875 966.3125 C 623.43823 965.6494 622.65477 965.28511 621.59375 965.21875 C 620.59903 965.15248 619.33772 965.01149 617.8125 964.8125 L 617.8125 962.3125 L 632.625 959.84375 z M 731.09375 959.84375 C 733.21577 959.8438 735.51509 960.12197 737.96875 960.71875 C 740.48865 961.24931 742.84284 962.28732 745.03125 963.8125 C 747.28589 965.33777 748.4062 967.21411 748.40625 969.46875 C 748.4062 970.99402 747.81861 972.22789 746.625 973.15625 C 745.4313 974.08468 744.05643 974.56254 742.53125 974.5625 C 741.5365 974.56254 740.63948 974.00238 739.84375 972.875 C 739.11426 971.68138 738.49923 970.39264 737.96875 969 C 737.4382 967.54113 736.45506 966.22113 735.0625 965.09375 C 733.73618 963.90014 732.05571 963.31255 730 963.3125 C 727.48004 963.31255 725.32171 964.0137 723.53125 965.40625 C 721.80706 966.73258 720.51832 968.52661 719.65625 970.78125 C 718.79415 972.96966 718.17912 975.15542 717.78125 977.34375 C 717.44966 979.53215 717.28123 981.77278 717.28125 984.09375 C 717.28123 986.68003 717.4771 989.17521 717.875 991.5625 C 718.33918 993.88351 719.06777 996.18283 720.0625 998.4375 C 721.12351 1000.6922 722.63555 1002.4862 724.625 1003.8125 C 726.68072 1005.1388 729.12103 1005.7813 731.90625 1005.7812 C 735.48718 1005.7813 738.3741 1004.9117 740.5625 1003.1875 C 742.81714 1001.397 744.69348 998.76466 746.21875 995.25 L 749.09375 996.625 C 747.96636 1001.0017 745.63961 1004.5075 742.125 1007.0938 C 738.61031 1009.68 734.57565 1010.9687 730 1010.9688 C 722.24122 1010.9687 716.43996 1008.783 712.59375 1004.4062 C 708.81383 999.96321 706.9375 993.79766 706.9375 985.90625 C 706.9375 977.94858 708.98226 971.6146 713.09375 966.90625 C 717.20521 962.19799 723.20234 959.8438 731.09375 959.84375 z M 780.03125 959.84375 C 788.05523 959.8438 794.02492 962.08443 797.9375 966.59375 C 801.9163 971.03684 803.9062 977.31595 803.90625 985.40625 C 803.9062 993.4966 801.9163 999.80314 797.9375 1004.3125 C 794.02492 1008.7556 788.05523 1010.9687 780.03125 1010.9688 C 772.07353 1010.9687 766.10384 1008.6969 762.125 1004.1875 C 758.21246 999.67814 756.25 993.43028 756.25 985.40625 C 756.25 977.38226 758.21246 971.10315 762.125 966.59375 C 766.10384 962.08443 772.07353 959.8438 780.03125 959.84375 z M 827.875 959.84375 L 828.78125 967.40625 C 832.03062 965.01898 834.97241 963.13883 837.625 961.8125 C 840.27754 960.48627 843.13701 959.8438 846.1875 959.84375 C 852.35468 959.8438 856.7262 962.39385 859.3125 967.5 C 859.97559 967.10216 861.04104 966.40101 862.5 965.40625 C 864.02517 964.34527 865.14549 963.61668 865.875 963.21875 C 866.67071 962.7546 867.70872 962.22188 868.96875 961.625 C 870.29497 960.96191 871.55628 960.48406 872.75 960.21875 C 874.0099 959.95354 875.35352 959.8438 876.8125 959.84375 C 881.65336 959.8438 885.35498 961.27354 887.875 964.125 C 890.39486 966.91024 891.65617 970.74904 891.65625 975.65625 L 891.65625 1001.125 C 891.65617 1002.5839 891.76591 1003.7042 892.03125 1004.5 C 892.29642 1005.2295 892.74684 1005.7622 893.34375 1006.0938 C 893.94049 1006.4253 894.69652 1006.6212 895.625 1006.6875 C 896.55331 1006.7538 897.70106 1006.8087 899.09375 1006.875 L 899.09375 1009.7812 L 874.84375 1009.7812 L 874.84375 1006.875 C 876.23628 1006.8087 877.38403 1006.7538 878.3125 1006.6875 C 879.30714 1006.6212 880.06317 1006.4253 880.59375 1006.0938 C 881.19051 1005.7622 881.64092 1005.2295 881.90625 1004.5 C 882.17143 1003.7042 882.28118 1002.5839 882.28125 1001.125 L 882.28125 977.625 C 882.28118 969.33577 878.94766 965.21879 872.25 965.21875 C 868.40372 965.21879 865.40325 966.36655 863.28125 968.6875 C 861.22546 970.94222 860.2187 973.99756 860.21875 977.84375 L 860.21875 1001.125 C 860.2187 1002.5839 860.35969 1003.7042 860.625 1004.5 C 860.8902 1005.2295 861.30937 1005.7622 861.90625 1006.0938 C 862.50302 1006.4253 863.25905 1006.6212 864.1875 1006.6875 C 865.11584 1006.7538 866.29484 1006.8087 867.6875 1006.875 L 867.6875 1009.7812 L 843.40625 1009.7812 L 843.40625 1006.875 C 844.79881 1006.8087 845.94656 1006.7538 846.875 1006.6875 C 847.86967 1006.6212 848.6257 1006.4253 849.15625 1006.0938 C 849.75304 1005.7622 850.20345 1005.2295 850.46875 1004.5 C 850.73396 1003.7042 850.87496 1002.5839 850.875 1001.125 L 850.875 977.625 C 850.87496 973.64618 850.20124 970.62209 848.875 968.5 C 847.54868 966.31168 845.02606 965.21879 841.3125 965.21875 C 838.85884 965.21879 836.53209 965.8887 834.34375 967.28125 C 832.22167 968.60758 830.62351 970.37417 829.5625 972.5625 C 829.03197 973.68988 828.78123 975.45647 828.78125 977.84375 L 828.78125 1001.125 C 828.78123 1002.5839 828.92222 1003.7042 829.1875 1004.5 C 829.45274 1005.2295 829.8719 1005.7622 830.46875 1006.0938 C 831.06556 1006.4253 831.82158 1006.6212 832.75 1006.6875 C 833.67837 1006.7538 834.85738 1006.8087 836.25 1006.875 L 836.25 1009.7812 L 811.96875 1009.7812 L 811.96875 1006.875 C 813.36134 1006.8087 814.5091 1006.7538 815.4375 1006.6875 C 816.43221 1006.6212 817.21948 1006.4253 817.75 1006.0938 C 818.34682 1005.7622 818.76598 1005.2295 819.03125 1004.5 C 819.2965 1003.7042 819.43749 1002.5839 819.4375 1001.125 L 819.4375 969.78125 C 819.43749 968.12344 819.1555 966.97568 818.625 966.3125 C 818.09448 965.6494 817.31102 965.28511 816.25 965.21875 C 815.25528 965.15248 813.99397 965.01149 812.46875 964.8125 L 812.46875 962.3125 L 827.875 959.84375 z M 381.5625 963.3125 C 378.84359 963.31255 376.51684 964.04113 374.59375 965.5 C 372.73693 966.89264 371.39332 968.80023 370.53125 971.1875 C 369.66915 973.50853 369.02287 975.80404 368.625 978.125 C 368.29341 980.37971 368.12498 982.82002 368.125 985.40625 C 368.12498 987.99253 368.29341 990.42902 368.625 992.75 C 369.02287 995.0047 369.66915 997.33145 370.53125 999.71875 C 371.39332 1002.0398 372.73693 1003.9473 374.59375 1005.4062 C 376.51684 1006.7989 378.84359 1007.4688 381.5625 1007.4688 C 384.28135 1007.4688 386.6081 1006.7989 388.53125 1005.4062 C 390.45432 1004.0137 391.82538 1002.1061 392.6875 999.71875 C 393.61586 997.33145 394.26214 995.0047 394.59375 992.75 C 394.92528 990.42902 395.09371 987.99253 395.09375 985.40625 C 395.09371 970.68454 390.58119 963.31255 381.5625 963.3125 z M 527.96875 963.3125 C 524.38776 963.31255 521.7554 964.57386 520.03125 967.09375 C 518.37338 969.61373 517.53123 972.75138 517.53125 976.53125 C 517.53123 980.04593 518.40081 983.07384 520.125 985.59375 C 521.84915 988.0474 524.3992 989.28127 527.78125 989.28125 C 531.16324 989.28127 533.68586 988.0474 535.34375 985.59375 C 537.06788 983.07384 537.93746 980.04593 537.9375 976.53125 C 537.93746 972.95032 537.09532 969.86754 535.4375 967.28125 C 533.84593 964.62873 531.35074 963.31255 527.96875 963.3125 z M 780.03125 963.3125 C 777.31234 963.31255 774.98559 964.04113 773.0625 965.5 C 771.20568 966.89264 769.86207 968.80023 769 971.1875 C 768.1379 973.50853 767.49162 975.80404 767.09375 978.125 C 766.76216 980.37971 766.62498 982.82002 766.625 985.40625 C 766.62498 987.99253 766.76216 990.42902 767.09375 992.75 C 767.49162 995.0047 768.1379 997.33145 769 999.71875 C 769.86207 1002.0398 771.20568 1003.9473 773.0625 1005.4062 C 774.98559 1006.7989 777.31234 1007.4688 780.03125 1007.4688 C 782.7501 1007.4688 785.07685 1006.7989 787 1005.4062 C 788.92307 1004.0137 790.32538 1002.1061 791.1875 999.71875 C 792.11586 997.33145 792.73089 995.0047 793.0625 992.75 C 793.39403 990.42902 793.56246 987.99253 793.5625 985.40625 C 793.56246 970.68454 789.04994 963.31255 780.03125 963.3125 z M 688.90625 998.21875 C 690.82935 998.21876 692.37264 998.83761 693.5 1000.0312 C 694.62732 1001.2249 695.18748 1002.7644 695.1875 1004.6875 C 695.18748 1006.5443 694.59989 1008.0876 693.40625 1009.2812 C 692.27889 1010.4086 690.76303 1010.9687 688.90625 1010.9688 C 687.04944 1010.9687 685.5374 1010.4086 684.34375 1009.2812 C 683.2164 1008.0876 682.65624 1006.5443 682.65625 1004.6875 C 682.65624 1002.8307 683.2164 1001.3187 684.34375 1000.125 C 685.5374 998.86504 687.04944 998.21876 688.90625 998.21875 z M 529.0625 1009.0625 C 524.88468 1009.0625 521.60604 1009.7362 519.21875 1011.0625 C 516.89774 1012.3888 515.74999 1014.9663 515.75 1018.8125 C 515.74999 1022.5924 517.15229 1025.4519 519.9375 1027.375 C 522.78899 1029.3644 526.14994 1030.3437 530.0625 1030.3438 C 533.90869 1030.3437 537.24602 1029.337 540.03125 1027.2812 C 542.88272 1025.2255 544.28121 1022.3386 544.28125 1018.625 C 544.28121 1012.2588 539.20853 1009.0625 529.0625 1009.0625 z "
       transform="translate(0,-10.631225)"
       id="rect2985" />
  </g>
</svg>
